<svg xmlns="http://www.w3.org/2000/svg" width="14.947" height="14.947"><path data-name="Icon open-magnifying-glass" d="M6.481.019a6.481 6.481 0 000 12.961 6.405 6.405 0 003.074-.759 1.852 1.852 0 00.241.241l1.852 1.852a1.889 1.889 0 102.665-2.669l-1.852-1.85a1.852 1.852 0 00-.3-.241 6.394 6.394 0 00.815-3.074A6.488 6.488 0 006.5 0zm0 1.852a4.607 4.607 0 014.629 4.628 4.643 4.643 0 01-1.222 3.185l-.056.056a1.852 1.852 0 00-.241.241 4.633 4.633 0 01-3.129 1.164 4.629 4.629 0 110-9.258z" fill="#fff"/></svg>