<svg xmlns="http://www.w3.org/2000/svg" width="52.084" height="44.307" viewBox="0 0 52.084 44.307"><g transform="translate(-30 -1361.693)"><path d="M.451,18.06C2.421,9.093,10.737,2.032,21.286.375A30.623,30.623,0,0,1,26.042,0C40.424,0,52.084,9.918,52.084,22.153A19.576,19.576,0,0,1,48.624,33.18a22.265,22.265,0,0,1-1.869,2.4c-1.237,2.123,2.409,6.335,2.145,6.282.062.225-4.927-2.971-7.067-2.093A26.809,26.809,0,0,1,39,41.366a29.487,29.487,0,0,1-12.957,2.94C11.659,44.307,0,34.388,0,22.153A19.033,19.033,0,0,1,.451,18.06" transform="translate(30 1361.693)" fill="#bc0320"/><text transform="translate(37 1389)" fill="#fff" font-size="16" font-family="Arial-BoldMT, Arial" font-weight="700" letter-spacing="0.04em"><tspan x="0" y="0">NEW</tspan></text></g></svg>