<svg xmlns="http://www.w3.org/2000/svg" width="16" height="16"><g data-name="Icon - Instagram"><path data-name="パス 784" d="M11.234 1.93a2.839 2.839 0 012.836 2.836v6.468a2.839 2.839 0 01-2.836 2.836H4.766a2.839 2.839 0 01-2.836-2.836V4.766A2.839 2.839 0 014.766 1.93h6.468m0-1.93H4.766A4.78 4.78 0 000 4.766v6.468A4.78 4.78 0 004.766 16h6.468A4.78 4.78 0 0016 11.234V4.766A4.78 4.78 0 0011.234 0z" fill="#fff"/><path data-name="パス 785" d="M12.255 2.723a1.021 1.021 0 00-1.021 1.021 1.021 1.021 0 001.021 1.021 1.021 1.021 0 001.021-1.021 1.021 1.021 0 00-1.021-1.021z" fill="#fff"/><g data-name="グループ 1485"><path data-name="パス 786" d="M7.999 5.674a2.328 2.328 0 012.325 2.325 2.328 2.328 0 01-2.325 2.325 2.328 2.328 0 01-2.325-2.325 2.328 2.328 0 012.325-2.325m0-1.93a4.255 4.255 0 00-4.255 4.255 4.255 4.255 0 004.255 4.255 4.256 4.256 0 004.26-4.255 4.255 4.255 0 00-4.255-4.255z" fill="#fff"/></g></g></svg>