<svg xmlns="http://www.w3.org/2000/svg" width="17.727" height="15"><defs><clipPath id="a"><path data-name="長方形 566" fill="#fff" d="M0 0h17.727v15H0z"/></clipPath></defs><g data-name="グループ 1816"><g data-name="グループ 703" clip-path="url(#a)"><path data-name="パス 2522" d="M0 14.069V4.232a.314.314 0 00.038-.066 1.158 1.158 0 011.209-.909h1.91V1.289a1.169 1.169 0 01.851-1.14C4.05.137 4.09.117 4.132.1h12.984a2.6 2.6 0 01.616.354 2.792 2.792 0 01.368.63v9.837a.315.315 0 00-.038.066 1.158 1.158 0 01-1.209.909h-1.91v1.968a1.169 1.169 0 01-.851 1.139c-.042.013-.083.033-.124.049H.984a2.6 2.6 0 01-.616-.352A2.792 2.792 0 010 14.069M10.636 2.058H5.719c-.451 0-.612.163-.612.618v6.667c0 .436.168.6.609.6h9.814c.451 0 .612-.164.612-.618V2.678c0-.464-.16-.622-.629-.622h-4.877m2.352 9.844h-8.62a1.164 1.164 0 01-1.211-1.212V5.206h-.652a.487.487 0 00-.546.546v6.805a.7.7 0 00.117.362c.113.171.305.175.495.175h9.795a1.738 1.738 0 00.2-.005.458.458 0 00.418-.406c.017-.253 0-.508 0-.787" fill="#fff"/></g></g></svg>