<?xml version="1.0" encoding="UTF-8"?>
<svg xmlns="http://www.w3.org/2000/svg" width="767.269" height="152.996" viewBox="0 0 767.269 152.996">
  <defs>
    <style>
      .cls-1 {
        fill: #4c4948;
      }

      .cls-1, .cls-2, .cls-3 {
        stroke-width: 0px;
      }

      .cls-2 {
        fill: #b11f24;
      }

      .cls-3 {
        fill: #fff;
      }
    </style>
  </defs>
  <g id="_レイヤー_1" data-name="レイヤー 1">
    <g>
      <g>
        <rect class="cls-2" x="80.86" y="54.122" width="35.374" height="14.087"/>
        <path class="cls-2" d="M172.268,8.731v15.965h14.869v42.73c0,2.974-4.539,14.4-19.565,14.4s-22.695-14.869-22.695-14.869l-15.183,5.792s5.948,24.73,38.348,24.73,36.782-25.827,36.782-29.74V8.731h-32.556Z"/>
        <path class="cls-2" d="M38.521,8.418H.447v88.826h18.431v-14.166h24.473s24.909-5.478,24.909-37.878S42.434,8.418,38.521,8.418ZM38.551,67.896h-19.673V26.105h19.33c2.974,0,14.4,4.539,14.4,19.565,0,12.954-11.008,20.407-14.057,22.226Z"/>
        <path class="cls-2" d="M259.881,9.2c-22.756,0-41.204,18.448-41.204,41.204,0,9.562,3.39,18.25,8.855,25.241l-13.462,12.745c-3.294,3.119-3.437,8.365-.319,11.659,3.119,3.294,8.365,3.437,11.659.319l14.772-13.985c5.876,3.227,12.523,5.225,19.7,5.225,22.756,0,41.204-18.448,41.204-41.204s-18.448-41.204-41.204-41.204ZM259.881,85.516c-5.41,0-10.477-1.332-15.058-3.527-5.101-2.443-9.486-6.063-12.865-10.533-4.448-5.884-7.188-13.123-7.188-21.051,0-19.36,15.75-35.111,35.111-35.111s35.111,15.75,35.111,35.111-15.751,35.111-35.111,35.111Z"/>
      </g>
      <path class="cls-2" d="M312.044,100.192V9.683h29.036c16.765,0,28.792,7.046,28.792,23.933,0,6.318-2.065,11.298-6.438,15.308,8.14,5.59,12.271,13.365,12.271,22.112,0,18.467-15.429,29.158-32.074,29.158h-31.586ZM340.351,43.456c9.111,0,10.206-4.616,10.206-8.382,0-6.926-4.982-8.383-10.206-8.383h-9.476v16.765h9.476ZM344.239,83.184c7.775,0,12.149-4.496,12.149-11.542,0-7.291-4.374-11.785-12.149-11.785h-13.364v23.326h13.364Z"/>
    </g>
    <g>
      <path class="cls-2" d="M434.065,42.839c-4.752,0-7.849,2.881-7.849,6.409v.863h7.129v9.434h-7.129v26.93h-10.225v-26.93h-4.969v-9.434h4.969v-.504c0-10.081,8.209-17.281,18.073-17.281v10.513Z"/>
      <path class="cls-2" d="M482.378,68.329c0,10.369-8.713,18.938-19.153,18.938s-18.866-8.568-18.866-18.938c0-10.513,8.425-19.01,18.866-19.01s19.153,8.497,19.153,19.01ZM471.938,68.329c0-5.112-3.745-8.784-8.713-8.784-4.681,0-8.497,3.672-8.497,8.784,0,5.185,3.816,8.785,8.497,8.785,4.968,0,8.713-3.601,8.713-8.785Z"/>
      <path class="cls-2" d="M517.513,60.049c-1.008-.36-2.088-.504-3.24-.504-3.96,0-7.345,2.952-7.345,8.784v18.146h-10.225v-36.363h10.225v2.521c2.232-2.376,5.257-3.312,8.064-3.312.864,0,1.584,0,2.521.145v10.585Z"/>
    </g>
    <g>
      <path class="cls-2" d="M7.398,130.727h1.2v21.97h-1.2v-5.899c-2.425,1.025-4.899,2.075-6.798,2.875l-.6-1.15c1.875-.649,4.649-1.774,7.398-2.898v-7.599H.7v-1.199h6.699v-6.099ZM20.37,151.097c1.274,0,1.45-1.101,1.6-5.324.325.275.825.525,1.15.6-.175,4.399-.525,5.898-2.725,5.898h-4.424c-2,0-2.625-.574-2.625-2.749v-18.771h1.225v8.798c2.524-1.524,5.224-3.374,6.824-4.924l.95,1c-2.05,1.725-5.049,3.574-7.773,5.148v8.773c0,1.274.25,1.55,1.45,1.55h4.349Z"/>
      <path class="cls-2" d="M33.937,139.249v13.672h-1.175v-21.52h8.773v7.848h-7.598ZM33.937,132.376v2.399h6.448v-2.399h-6.448ZM40.385,138.249v-2.524h-6.448v2.524h6.448ZM43.609,146.723c1.025,2.024,3.049,3.398,5.824,3.948-.275.226-.575.625-.75.925-2.674-.675-4.699-2.124-5.848-4.174-.625,1.55-2.2,3.125-6.024,4.299-.15-.249-.5-.624-.725-.85,3.949-1.124,5.324-2.699,5.773-4.148h-5.673v-1.025h5.874c.025-.199.025-.375.025-.55v-1.799h-5.474v-1h3.174c-.25-.725-.775-1.625-1.325-2.3l.975-.35c.625.774,1.25,1.85,1.475,2.574l-.2.075h3.799c.475-.75,1.125-1.925,1.425-2.725l1.1.425c-.45.775-.95,1.625-1.425,2.3h3.424v1h-5.824v1.824c0,.175,0,.35-.025.524h6.349v1.025h-5.924ZM53.082,151.222c0,.824-.2,1.225-.8,1.449-.524.2-1.6.2-3.174.2-.05-.3-.25-.85-.425-1.2,1.275.025,2.399.025,2.75.025.35-.025.475-.125.475-.475v-11.973h-7.823v-7.848h8.998v19.82ZM45.234,132.376v2.399h6.673v-2.399h-6.673ZM51.907,138.249v-2.524h-6.673v2.524h6.673Z"/>
      <path class="cls-2" d="M75.894,145.373c2.349,2.574,6.249,4.974,9.598,6.099-.3.225-.675.675-.875.999-3.399-1.3-7.473-3.999-9.897-6.823v7.224h-1.225v-7.198c-2.424,2.824-6.423,5.448-9.772,6.748-.2-.3-.55-.774-.85-.975,3.274-1.149,7.124-3.549,9.448-6.073h-6.648v-8.923h7.823v-2.5h-10.073v-1.149h10.073v-2.524h1.225v2.524h10.272v1.149h-10.272v2.5h8.248v8.923h-7.073ZM66.846,140.399h6.648v-2.898h-6.648v2.898ZM66.846,144.324h6.648v-2.925h-6.648v2.925ZM74.719,137.5v2.898h7.048v-2.898h-7.048ZM81.767,141.399h-7.048v2.925h7.048v-2.925Z"/>
      <path class="cls-2" d="M104.661,151.621l-.725-1.225c.675-.025,1.475-.15,2.024-.25,3.199-.7,6.749-3.149,6.749-7.848,0-3.949-2.774-7.424-7.573-7.648-.3,2.475-.775,5.174-1.475,7.473-1.524,5.174-3.424,7.549-5.499,7.549-1.9,0-4.074-2.25-4.074-6.323,0-5.249,4.699-9.848,10.598-9.848,5.673,0,9.272,4.023,9.272,8.848,0,5.248-3.574,8.598-9.298,9.272ZM98.238,148.273c1.225,0,2.799-1.725,4.199-6.449.675-2.225,1.175-4.748,1.424-7.148-5.173.45-8.548,4.799-8.548,8.573,0,3.524,1.7,5.024,2.924,5.024Z"/>
      <path class="cls-1" d="M126.406,134.901c-.5.675-1.125,1.3-1.924,1.874-.2-.25-.55-.55-.8-.699,1.325-.875,2.25-1.975,2.674-3.05l1.05.125c-.125.3-.275.601-.425.875h7.723s0,.325-.025.525c-.175,3.273-.375,4.474-.8,4.923-.275.301-.55.4-1,.426-.35.024-.925,0-1.475-.025-.025-.275-.1-.6-.225-.825v.101h-5.499v-3.274h5.499v3.074c.6.05,1.1.05,1.325.05.225.025.375-.024.5-.2.25-.274.4-1.274.575-3.898h-7.173ZM123.906,142.474h22.52v.899h-22.52v-.899ZM127.406,132.401h-3.299v-.925h3.299v-1.199h1.075v1.199h3.149v-1.199h1.1v1.199h3.074v.925h-3.074v1h-1.1v-1h-3.149v1h-1.075v-1ZM130.205,136.75h-3.574v1.524h3.574v-1.524ZM127.656,148.472h14.996v4.399h-1.175v-.625h-12.672v.675h-1.149v-4.449ZM142.527,145.373h-14.747v-.875h14.747v.875ZM127.78,146.548h14.747v.85h-14.747v-.85ZM128.355,140.45h13.722v.85h-13.722v-.85ZM128.805,149.372v1.999h12.672v-1.999h-12.672ZM144.276,133.226c-.55,1.649-1.5,2.949-2.724,3.974,1.35,1.05,3.024,1.825,4.899,2.25-.275.225-.551.625-.725.949-1.9-.55-3.6-1.424-5.024-2.574-1.35.925-2.949,1.6-4.724,2.125-.1-.25-.425-.7-.65-.925,1.75-.425,3.324-1.05,4.599-1.899-.9-.875-1.65-1.899-2.225-3.05-.55.725-1.15,1.375-1.774,1.899-.175-.175-.625-.499-.875-.649,1.575-1.25,2.899-3.074,3.599-5.099l1.05.225c-.225.625-.475,1.225-.8,1.8h7.348v.975h-1.975ZM138.403,133.226c.525,1.25,1.325,2.374,2.35,3.299,1.075-.874,1.899-1.949,2.375-3.299h-4.724Z"/>
      <path class="cls-1" d="M161.712,130.701c-.55,1.699-1.25,3.374-1.999,4.974v17.221h-1.15v-15.021c-.9,1.55-1.85,2.975-2.874,4.175-.125-.275-.476-.851-.7-1.125,2.274-2.574,4.324-6.523,5.599-10.497l1.125.274ZM178.283,138.275h-14.473v4.199c0,3.049-.324,7.348-2.224,10.372-.2-.225-.625-.6-.899-.75,1.773-2.874,1.949-6.773,1.949-9.622v-5.299h15.646v1.1ZM166.361,133.901h-4.324v-1.1h4.324v-2.324h1.148v2.324h5.274v-2.324h1.149v2.324h4.273v1.1h-4.273v2.274h-1.149v-2.274h-5.274v2.274h-1.148v-2.274ZM177.633,151.472c0,.699-.15,1.049-.675,1.225-.524.199-1.524.199-3.124.199-.051-.274-.2-.699-.375-.999,1.324.024,2.35.024,2.649,0,.325-.025.425-.125.425-.4v-2.899h-4.424v4.124h-1.05v-4.124h-4.299v4.299h-1.101v-12.446h11.973v11.022ZM166.761,141.474v2.6h4.299v-2.6h-4.299ZM171.06,147.648v-2.6h-4.299v2.6h4.299ZM172.109,141.474v2.6h4.424v-2.6h-4.424ZM176.533,147.648v-2.6h-4.424v2.6h4.424Z"/>
      <path class="cls-1" d="M209.408,146.898h-5.799v4.574c0,.799-.2,1.149-.875,1.324-.699.175-2,.2-4.199.2-.074-.325-.275-.75-.449-1.075,1.85.025,3.349.025,3.773,0,.45-.024.574-.125.574-.475v-4.549h-15.146v-1.075h15.146v-2.274h-12.696v-7.973h7.974v-2.024h-9.823v-1.075h9.823v-2.174h1.174v2.174h9.998v1.075h-9.998v2.024h8.123v7.973h-3.398v2.274h5.799v1.075ZM190.887,139.075h6.824v-2.499h-6.824v2.499ZM190.887,142.549h6.824v-2.524h-6.824v2.524ZM192.087,147.523c1.524.949,3.274,2.399,4.149,3.424l-.975.774c-.801-1.05-2.525-2.524-4.05-3.523l.875-.675ZM198.885,136.576v2.499h6.949v-2.499h-6.949ZM205.834,140.025h-6.949v2.524h6.949v-2.524Z"/>
      <path class="cls-1" d="M227.953,140.374h-7.348v12.497h-1.2v-21.345h8.548v8.848ZM220.605,132.601v2.725h6.197v-2.725h-6.197ZM226.803,139.275v-2.949h-6.197v2.949h6.197ZM239.525,150.972c0,.975-.275,1.449-.975,1.649-.725.2-2.125.225-4.274.225-.075-.325-.3-.899-.499-1.274,1.824.075,3.448.05,3.924.024.475-.024.625-.124.625-.624v-10.598h-7.674v-8.848h8.873v19.445ZM231.803,132.601v2.725h6.523v-2.725h-6.523ZM238.326,139.299v-2.974h-6.523v2.974h6.523Z"/>
      <path class="cls-1" d="M258.15,145.723c-2.824,1.675-5.849,3.449-8.098,4.699l-.725-1.05c2.124-1.1,5.373-2.925,8.447-4.699l.375,1.05ZM270.223,137.95c-1.525,1.8-3.774,3.975-5.523,5.424,1.999,2.949,4.523,5.349,7.498,6.599-.275.25-.676.675-.875,1-4.475-2.1-7.898-6.599-10.072-11.947v11.997c0,1.074-.325,1.475-1.051,1.675-.699.225-2.124.25-4.323.25-.075-.325-.274-.9-.476-1.275,1.85.05,3.5.025,4,0,.475-.024.649-.149.649-.625v-15.196h-10.098v-1.175h10.098v-4.349h1.2v4.349h10.247v1.175h-10.247v.2c.725,2.274,1.699,4.449,2.898,6.424,1.675-1.45,3.799-3.624,5.049-5.274l1.025.75ZM255.676,143.048c-.775-1.35-2.549-3.349-4.174-4.748l.925-.575c1.6,1.375,3.425,3.324,4.198,4.648l-.949.675ZM268.623,134.276c-1-.899-2.975-2.199-4.574-3.049l.75-.75c1.549.824,3.574,2.074,4.599,2.899l-.774.899Z"/>
      <path class="cls-1" d="M292.512,132.027c.199,3.049,1.574,15.321,11.197,19.645-.324.25-.725.675-.925,1-7.073-3.299-9.747-10.797-10.772-15.946-.875,5.273-3.324,12.347-10.447,15.946-.2-.3-.6-.675-.925-.925,10.272-4.974,10.472-17.296,10.647-20.62h1.274l-.05.9Z"/>
      <path class="cls-2" d="M317.779,151.971l-1.074-1.024c4.35-1.774,6.723-3.924,6.723-11.422v-1.1h-7.822v4.424c0,.8.074,1.949.1,2.049h-1.449c0-.1.1-1.199.1-2.049v-4.424h-3.049c-.975,0-2.25.074-2.375.074v-1.424c.1,0,1.425.124,2.375.124h3.049v-3.624c0-.425-.025-1.1-.1-1.549h1.449c0,.074-.1.749-.1,1.524v3.648h7.822v-3.424c0-.949-.1-1.774-.1-1.874h1.475c0,.1-.1.925-.1,1.874v3.424h3.274c.975,0,1.874-.1,1.999-.124v1.424c-.1,0-1.024-.074-1.999-.074h-3.274v.899c0,6.948-1.4,10.147-6.924,12.646Z"/>
      <path class="cls-2" d="M349.488,137.7c2.649-1.699,4.949-3.648,6.748-5.798l1.051.975c-1.925,2.024-4.149,3.898-6.799,5.648v10.822c0,.825.05,1.875.125,2.3h-1.55c.05-.4.101-1.475.101-2.3v-9.997c-2.625,1.574-6.225,3.174-9.898,4.323l-.674-1.225c4.248-1.175,8.147-3.024,10.896-4.749Z"/>
      <path class="cls-2" d="M371.08,134.351c0-.6-.051-1.649-.176-2.375h1.6c-.074.7-.15,1.775-.15,2.375v4.324c3.275.999,7.949,2.799,10.822,4.224l-.549,1.324c-2.775-1.524-7.498-3.324-10.273-4.174.025,4.124.025,8.398.025,8.923,0,.85.025,1.949.125,2.649h-1.549c.1-.675.125-1.749.125-2.649v-14.621Z"/>
    </g>
  </g>
  <g id="_レイヤー_3" data-name="レイヤー 3">
    <g>
      <path class="cls-2" d="M693.047,0l-20.239,47.083h6.498l-11.511,53.692h-12.539l9.091-42.407h-9.577L679.597,0h13.45ZM760.671,36.595h-60.99l-4.35,20.291-14.677,43.806h-10.945l14.726-44.035,6.525-30.437h11.174l2.102-9.806h-12.085l2.272-10.6h12.085l1.247-5.815h12.996l-1.247,5.815h22.685l1.247-5.815h13.11l-1.247,5.815h11.971l-2.272,10.6h-11.971l-2.102,9.806h11.971l-2.224,10.374ZM737.814,26.221l2.102-9.806h-22.685l-2.102,9.806h22.685Z"/>
      <polygon class="cls-2" points="704.325 42.149 691.812 100.517 702.072 100.517 704.883 87.407 717.879 87.407 715.386 99.035 724.049 99.035 726.542 87.407 739.424 87.407 736.613 100.517 746.987 100.517 759.5 42.149 704.325 42.149"/>
      <g>
        <g>
          <path class="cls-2" d="M557.632,14.69l-9.242,16.529h7.409l-1.931,9.006h30.439l2.932-13.679h-26.335l1.971-3.876h31.236l-3.983,18.58,12.096-6.966,3.737-17.429h-39.788l1.15-2.165h6.155l.562-2.622h12.996l-.562,2.622h9.691l.562-2.622h3.823l8.002-7.298h-10.26l.733-3.419h-9.691l-.733,3.419h-12.996l.733-3.419h-9.803l-.733,3.419h-10.831l-1.565,7.298h10.831l-.562,2.622h-6.044ZM563.437,31.219h15.161l-.929,4.333h-15.161l.929-4.333Z"/>
          <polygon class="cls-2" points="545.666 73.172 544.517 78.531 614.553 78.531 620.659 73.172 545.666 73.172"/>
          <polygon class="cls-2" points="630.876 64.167 547.596 64.167 546.448 69.522 624.819 69.522 630.865 64.216 630.876 64.167"/>
          <polygon class="cls-2" points="550.676 49.802 641.495 49.802 637.557 44.33 551.849 44.33 550.676 49.802"/>
          <path class="cls-2" d="M649.298,14.119l10.049-8.663h-33.158l2.362-4.104h-9.577l-12.672,23.484h9.234l2.575-4.562,5.431,6.044-18.48,14.933h11.971l11.262-9.46,8.689,9.46h11.057l-13.214-14.933,14.472-12.199ZM630.135,21.074l-1.189-1.368h-10.485l3.02-5.587h17.329l-8.675,6.955Z"/>
          <polygon class="cls-2" points="555.052 94.26 556.274 88.562 603.122 88.562 610.396 82.178 543.735 82.178 539.776 100.644 589.354 100.644 596.628 94.26 555.052 94.26"/>
          <polygon class="cls-1" points="641.812 60.516 610.731 60.516 612.246 53.45 643.327 53.45 641.812 60.516"/>
        </g>
        <polygon class="cls-2" points="589.79 100.644 610.396 82.178 598.511 82.178 577.821 100.43 589.79 100.644"/>
        <polygon class="cls-1" points="630.009 100.636 633.966 82.178 615.855 82.178 595.122 100.636 630.009 100.636"/>
        <polygon class="cls-2" points="630.009 100.636 630.521 98.245 597.731 98.245 595.122 100.636 630.009 100.636"/>
        <polygon class="cls-1" points="634.71 78.551 635.859 73.19 625.799 73.19 619.713 78.551 634.71 78.551"/>
        <polygon class="cls-1" points="636.714 69.507 637.863 64.146 634.16 64.146 628.009 69.507 636.714 69.507"/>
      </g>
      <path class="cls-2" d="M544.791,60.476h68.374s1.517-7.078,1.517-7.078h-68.374c-1.946,0-3.88,1.592-4.297,3.539h0c-.417,1.946.834,3.539,2.78,3.539Z"/>
      <polygon class="cls-3" points="740.848 80.707 706.307 80.707 707.765 73.904 742.306 73.904 740.848 80.707"/>
      <polygon class="cls-3" points="726.405 40.843 722.039 75.252 715.134 75.845 719.5 41.436 726.405 40.843"/>
      <polygon class="cls-3" points="744.815 41.332 734.428 75.742 727.778 75.149 738.165 40.739 744.815 41.332"/>
    </g>
  </g>
</svg>