<?xml version="1.0" encoding="UTF-8"?>
<svg id="_レイヤー_1" data-name="レイヤー 1" xmlns="http://www.w3.org/2000/svg" version="1.1" viewBox="0 0 18.8 25">
  <defs>
    <style>
      .cls-1 {
        fill: #4d4d4d;
        stroke-width: 0px;
      }
    </style>
  </defs>
  <path class="cls-1" d="M8.4,24.5C1.3,14.2,0,13.2,0,9.4S4.2,0,9.4,0s9.4,4.2,9.4,9.4-1,4.6-6.3,12.1c-.5.7-1.3,1.8-2.1,3-.4.5-1.1.7-1.6.3-.1,0-.2-.2-.3-.3h0ZM9.4,13.3c2.2,0,3.9-1.7,3.9-3.9s-1.7-3.9-3.9-3.9c-2.2,0-3.9,1.7-3.9,3.9,0,2.2,1.7,3.9,3.9,3.9h0Z"/>
</svg>