<?xml version="1.0" encoding="UTF-8"?>
<svg id="_レイヤー_1" data-name="レイヤー 1" xmlns="http://www.w3.org/2000/svg" version="1.1" viewBox="0 0 25 25">
  <defs>
    <style>
      .cls-1 {
        fill: #4d4d4d;
      }

      .cls-1, .cls-2 {
        stroke-width: 0px;
      }

      .cls-2 {
        fill: #fff;
      }
    </style>
  </defs>
  <circle class="cls-2" cx="12.5" cy="12.5" r="12.5"/>
  <path class="cls-1" d="M12.5,2C6.7,2,2,6.7,2,12.5s4.7,10.5,10.5,10.5,10.5-4.7,10.5-10.5c0-5.8-4.7-10.5-10.5-10.5M12.5,0C19.4,0,25,5.6,25,12.5s-5.6,12.5-12.5,12.5S0,19.4,0,12.5h0C0,5.6,5.6,0,12.5,0Z"/>
  <path class="cls-1" d="M7.1,6.3l3.6,4.8h-3.6v1.6h4.8v1.6h-4.8v1.6h4.8v3.2h1.6v-3.2h4.8v-1.6h-4.8v-1.6h4.8v-1.6h-3.6l3.6-4.8h-1.6l-3.7,4.8h-.6l-3.7-4.8h-1.6Z"/>
</svg>