<svg xmlns="http://www.w3.org/2000/svg" width="16" height="13.104"><g data-name="Icon - Twitter"><path data-name="パス 779" d="M8.016 3.965a3.24 3.24 0 012.1-3.763c1.642-.744 3.316.848 3.316.848l2-.8c0 .857-1.429 1.714-1.429 1.714a6.975 6.975 0 002-.286c0 .286-1.714 1.714-1.714 1.714 0 6.857-5.143 9.714-9.429 9.714S.003 11.392.003 11.392c3.429 0 4.572-1.429 4.572-1.429-.857.571-2.857-2-2.857-2a3.275 3.275 0 001.714 0C1.718 7.677.575 4.534.575 4.534c.286.571 1.714.571 1.714.571A4.032 4.032 0 011.146.534c1.711 2.856 6.87 3.431 6.87 3.431z" fill="#fff"/></g></svg>