<svg xmlns="http://www.w3.org/2000/svg" width="25" height="25"><g data-name="グループ 1824" transform="translate(-177 -1399)"><circle data-name="楕円形 20" cx="12.5" cy="12.5" r="12.5" transform="translate(177 1399)" fill="#fff"/><path data-name="楕円形 20 - アウトライン" d="M189.5 1401a10.5 10.5 0 1010.5 10.5 10.512 10.512 0 00-10.5-10.5m0-2a12.5 12.5 0 11-12.5 12.5 12.5 12.5 0 0112.5-12.5z" fill="#be0e1d"/><path data-name="Icon open-yen" d="M184.06 1405.264l3.579 4.772h-3.579v1.591h4.772v1.59h-4.772v1.591h4.772v3.181h1.591v-3.181h4.772v-1.591h-4.772v-1.59h4.772v-1.591h-3.579l3.579-4.772h-1.591l-3.674 4.772h-.6l-3.679-4.772h-1.591z" fill="#be0e1d"/></g></svg>