<?xml version="1.0" encoding="UTF-8"?>
<svg xmlns="http://www.w3.org/2000/svg" width="791.198" height="176.036" viewBox="0 0 791.198 176.036">
  <defs>
    <style>
      .cls-1 {
        fill: #00a0e9;
      }

      .cls-1, .cls-2, .cls-3 {
        stroke-width: 0px;
      }

      .cls-4 {
        fill: none;
        stroke: #231815;
        stroke-linecap: round;
        stroke-linejoin: round;
        stroke-width: 2.039px;
      }

      .cls-2 {
        fill: #231815;
      }

      .cls-3 {
        fill: #b11f24;
      }
    </style>
  </defs>
  <g id="_レイヤー_1" data-name="レイヤー 1">
    <g>
      <g>
        <g>
          <rect class="cls-3" x="81.527" y="77.109" width="35.374" height="14.087"/>
          <path class="cls-3" d="M172.935,31.718v15.965h14.869v42.73c0,2.974-4.539,14.4-19.565,14.4s-22.695-14.869-22.695-14.869l-15.183,5.792s5.948,24.73,38.348,24.73,36.782-25.827,36.782-29.74V31.718h-32.556Z"/>
          <path class="cls-3" d="M39.188,31.404H1.114v88.826h18.431v-14.166h24.473s24.909-5.478,24.909-37.878-25.826-36.783-29.739-36.783ZM39.218,90.883h-19.673v-41.791h19.33c2.974,0,14.4,4.539,14.4,19.565,0,12.954-11.008,20.407-14.057,22.226Z"/>
          <path class="cls-3" d="M260.548,32.187c-22.756,0-41.204,18.448-41.204,41.204,0,9.562,3.39,18.25,8.855,25.241l-13.462,12.745c-3.294,3.119-3.437,8.365-.319,11.659,3.119,3.294,8.365,3.437,11.659.319l14.772-13.985c5.876,3.227,12.523,5.225,19.7,5.225,22.756,0,41.204-18.448,41.204-41.204s-18.448-41.204-41.204-41.204ZM260.548,108.502c-5.41,0-10.477-1.332-15.058-3.527-5.101-2.443-9.486-6.063-12.865-10.533-4.448-5.884-7.188-13.123-7.188-21.051,0-19.36,15.75-35.111,35.111-35.111s35.111,15.75,35.111,35.111-15.751,35.111-35.111,35.111Z"/>
        </g>
        <path class="cls-3" d="M312.711,123.179V32.669h29.036c16.765,0,28.792,7.046,28.792,23.933,0,6.318-2.065,11.298-6.438,15.308,8.14,5.59,12.271,13.365,12.271,22.112,0,18.467-15.429,29.158-32.074,29.158h-31.586ZM341.018,66.443c9.111,0,10.206-4.616,10.206-8.382,0-6.926-4.982-8.383-10.206-8.383h-9.476v16.765h9.476ZM344.906,106.171c7.775,0,12.149-4.496,12.149-11.542,0-7.291-4.374-11.785-12.149-11.785h-13.364v23.326h13.364Z"/>
      </g>
      <g>
        <path class="cls-3" d="M7.398,153.742h1.2v21.97h-1.2v-5.899c-2.425,1.025-4.899,2.075-6.798,2.875l-.6-1.15c1.875-.649,4.649-1.774,7.398-2.898v-7.599H.7v-1.199h6.699v-6.099ZM20.37,174.112c1.274,0,1.45-1.101,1.6-5.324.325.275.825.525,1.15.6-.175,4.399-.525,5.898-2.725,5.898h-4.424c-2,0-2.625-.574-2.625-2.749v-18.771h1.225v8.798c2.524-1.524,5.224-3.374,6.824-4.924l.95,1c-2.05,1.725-5.049,3.574-7.773,5.148v8.773c0,1.274.25,1.55,1.45,1.55h4.349Z"/>
        <path class="cls-3" d="M33.937,162.264v13.672h-1.175v-21.52h8.773v7.848h-7.598ZM33.937,155.391v2.399h6.448v-2.399h-6.448ZM40.385,161.264v-2.524h-6.448v2.524h6.448ZM43.609,169.738c1.025,2.024,3.049,3.398,5.824,3.948-.275.226-.575.625-.75.925-2.674-.675-4.699-2.124-5.848-4.174-.625,1.55-2.2,3.125-6.024,4.299-.15-.249-.5-.624-.725-.85,3.949-1.124,5.324-2.699,5.773-4.148h-5.673v-1.025h5.874c.025-.199.025-.375.025-.55v-1.799h-5.474v-1h3.174c-.25-.725-.775-1.625-1.325-2.3l.975-.35c.625.774,1.25,1.85,1.475,2.574l-.2.075h3.799c.475-.75,1.125-1.925,1.425-2.725l1.1.425c-.45.775-.95,1.625-1.425,2.3h3.424v1h-5.824v1.824c0,.175,0,.35-.025.524h6.349v1.025h-5.924ZM53.082,174.237c0,.824-.2,1.225-.8,1.449-.524.2-1.6.2-3.174.2-.05-.3-.25-.85-.425-1.2,1.275.025,2.399.025,2.75.025.35-.025.475-.125.475-.475v-11.973h-7.823v-7.848h8.998v19.82ZM45.234,155.391v2.399h6.673v-2.399h-6.673ZM51.907,161.264v-2.524h-6.673v2.524h6.673Z"/>
        <path class="cls-3" d="M75.894,168.388c2.349,2.574,6.249,4.974,9.598,6.099-.3.225-.675.675-.875.999-3.399-1.3-7.473-3.999-9.897-6.823v7.224h-1.225v-7.198c-2.424,2.824-6.423,5.448-9.772,6.748-.2-.3-.55-.774-.85-.975,3.274-1.149,7.124-3.549,9.448-6.073h-6.648v-8.923h7.823v-2.5h-10.073v-1.149h10.073v-2.524h1.225v2.524h10.272v1.149h-10.272v2.5h8.248v8.923h-7.073ZM66.846,163.414h6.648v-2.898h-6.648v2.898ZM66.846,167.338h6.648v-2.925h-6.648v2.925ZM74.719,160.515v2.898h7.048v-2.898h-7.048ZM81.767,164.414h-7.048v2.925h7.048v-2.925Z"/>
        <path class="cls-3" d="M104.661,174.636l-.725-1.225c.675-.025,1.475-.15,2.024-.25,3.199-.7,6.749-3.149,6.749-7.848,0-3.949-2.774-7.424-7.573-7.648-.3,2.475-.775,5.174-1.475,7.473-1.524,5.174-3.424,7.549-5.499,7.549-1.9,0-4.074-2.25-4.074-6.323,0-5.249,4.699-9.848,10.598-9.848,5.673,0,9.272,4.023,9.272,8.848,0,5.248-3.574,8.598-9.298,9.272ZM98.238,171.288c1.225,0,2.799-1.725,4.199-6.449.675-2.225,1.175-4.748,1.424-7.148-5.173.45-8.548,4.799-8.548,8.573,0,3.524,1.7,5.024,2.924,5.024Z"/>
        <path class="cls-1" d="M133.779,172.187c-.575-.675-2.274-2.274-3.449-3.274v6.948h-1.175v-7.523c-1.35,2.2-3.199,4.35-4.799,5.574-.225-.275-.575-.65-.875-.875,1.875-1.199,4.024-3.724,5.324-6.099h-4.824v-1.1h5.174v-3.024h-5.249v-1.074h11.597v1.074h-5.174v3.024h4.999v1.1h-4.999v.8c1,.75,3.599,2.925,4.199,3.499l-.75.95ZM135.128,157.041h-10.872v-1.074h4.898v-2.675h1.175v2.675h4.799v1.074ZM127.005,161.49c-.1-1.05-.55-2.699-1.1-3.949l1-.2c.575,1.2,1.05,2.824,1.15,3.874l-1.05.275ZM130.979,161.214c.525-1.05,1.125-2.774,1.425-3.924l1.125.3c-.45,1.325-1.05,2.899-1.524,3.924l-1.025-.3ZM146.401,162.915h-3.1v12.847h-1.174v-12.847h-4.474v1.174c0,3.75-.475,8.523-4.049,11.947-.15-.274-.55-.649-.85-.824,3.375-3.175,3.749-7.549,3.749-11.123v-8.747l1.075.375c2.7-.575,5.699-1.35,7.374-2.149l1,.899c-2.099.949-5.398,1.725-8.298,2.274v5.049h8.748v1.125Z"/>
        <path class="cls-1" d="M176.283,169.538h-10.547v6.349h-1.2v-6.349h-10.372v-1.175h10.372v-1.824h1.2v1.824h10.547v1.175ZM163.536,165.239c-.774-.825-2.249-2.024-3.574-2.999-1.199,2.024-2.749,3.698-4.498,4.924-.2-.2-.675-.625-.925-.851,2.699-1.699,4.823-4.523,5.849-7.998l1.174.25c-.3.975-.675,1.899-1.1,2.75,1.4.949,3.024,2.224,3.899,3.074l-.825.85ZM175.583,157.84h-20.771v-1.149h9.723v-3.425h1.2v3.425h9.848v1.149ZM171.384,158.565c-.351,1.075-.8,2.1-1.35,3,2.024,1.399,4.448,3.299,5.724,4.523l-.9.899c-1.149-1.199-3.449-3.074-5.398-4.499-1.074,1.575-2.425,2.875-3.924,3.85-.175-.225-.65-.65-.95-.85,2.6-1.55,4.649-4.049,5.599-7.174l1.2.25Z"/>
        <path class="cls-1" d="M207.885,169.913h-5.799v4.574c0,.799-.2,1.149-.875,1.324-.699.175-1.999.2-4.199.2-.074-.325-.274-.75-.449-1.075,1.85.025,3.349.025,3.773,0,.45-.024.575-.125.575-.475v-4.549h-15.146v-1.075h15.146v-2.274h-12.697v-7.973h7.974v-2.024h-9.823v-1.075h9.823v-2.174h1.175v2.174h9.997v1.075h-9.997v2.024h8.123v7.973h-3.399v2.274h5.799v1.075ZM189.365,162.089h6.823v-2.499h-6.823v2.499ZM189.365,165.564h6.823v-2.524h-6.823v2.524ZM190.564,170.538c1.524.949,3.274,2.399,4.149,3.424l-.975.774c-.8-1.05-2.524-2.524-4.05-3.523l.875-.675ZM197.363,159.59v2.499h6.948v-2.499h-6.948ZM204.311,163.04h-6.948v2.524h6.948v-2.524Z"/>
        <path class="cls-1" d="M226.43,163.389h-7.348v12.497h-1.2v-21.345h8.548v8.848ZM219.083,155.616v2.725h6.198v-2.725h-6.198ZM225.281,162.29v-2.949h-6.198v2.949h6.198ZM238.002,173.987c0,.975-.274,1.449-.975,1.649-.725.2-2.125.225-4.274.225-.074-.325-.3-.899-.499-1.274,1.824.075,3.448.05,3.924.024.475-.024.625-.124.625-.624v-10.598h-7.674v-8.848h8.873v19.445ZM230.28,155.616v2.725h6.523v-2.725h-6.523ZM236.803,162.314v-2.974h-6.523v2.974h6.523Z"/>
        <path class="cls-1" d="M256.627,168.738c-2.824,1.675-5.849,3.449-8.098,4.699l-.725-1.05c2.124-1.1,5.373-2.925,8.447-4.699l.375,1.05ZM268.7,160.964c-1.524,1.8-3.774,3.975-5.523,5.424,1.999,2.949,4.523,5.349,7.498,6.599-.275.25-.675.675-.875,1-4.474-2.1-7.898-6.599-10.072-11.947v11.997c0,1.074-.325,1.475-1.05,1.675-.7.225-2.125.25-4.324.25-.075-.325-.274-.9-.475-1.275,1.85.05,3.499.025,3.999,0,.475-.024.649-.149.649-.625v-15.196h-10.098v-1.175h10.098v-4.349h1.2v4.349h10.247v1.175h-10.247v.2c.725,2.274,1.699,4.449,2.899,6.424,1.674-1.45,3.799-3.624,5.049-5.274l1.024.75ZM254.153,166.063c-.774-1.35-2.549-3.349-4.174-4.748l.925-.575c1.6,1.375,3.425,3.324,4.199,4.648l-.95.675ZM267.1,157.291c-1-.899-2.975-2.199-4.574-3.049l.75-.75c1.55.824,3.574,2.074,4.599,2.899l-.774.899Z"/>
        <path class="cls-1" d="M290.989,155.042c.2,3.049,1.575,15.321,11.197,19.645-.324.25-.725.675-.925,1-7.073-3.299-9.747-10.797-10.772-15.946-.874,5.273-3.324,12.347-10.447,15.946-.2-.3-.6-.675-.925-.925,10.272-4.974,10.473-17.296,10.647-20.62h1.274l-.05.9Z"/>
        <path class="cls-3" d="M316.257,174.986l-1.075-1.024c4.35-1.774,6.724-3.924,6.724-11.422v-1.1h-7.823v4.424c0,.8.075,1.949.101,2.049h-1.45c0-.1.1-1.199.1-2.049v-4.424h-3.049c-.975,0-2.249.074-2.374.074v-1.424c.1,0,1.424.124,2.374.124h3.049v-3.624c0-.425-.024-1.1-.1-1.549h1.45c0,.074-.101.749-.101,1.524v3.648h7.823v-3.424c0-.949-.1-1.774-.1-1.874h1.475c0,.1-.101.925-.101,1.874v3.424h3.274c.975,0,1.875-.1,2-.124v1.424c-.101,0-1.025-.074-2-.074h-3.274v.899c0,6.948-1.399,10.147-6.923,12.646Z"/>
        <path class="cls-3" d="M347.966,160.714c2.648-1.699,4.948-3.648,6.748-5.798l1.05.975c-1.925,2.024-4.149,3.898-6.799,5.648v10.822c0,.825.05,1.875.125,2.3h-1.55c.051-.4.101-1.475.101-2.3v-9.997c-2.625,1.574-6.224,3.174-9.897,4.323l-.675-1.225c4.249-1.175,8.147-3.024,10.897-4.749Z"/>
        <path class="cls-3" d="M369.557,157.366c0-.6-.051-1.649-.175-2.375h1.6c-.075.7-.15,1.775-.15,2.375v4.324c3.274.999,7.948,2.799,10.822,4.224l-.55,1.324c-2.774-1.524-7.498-3.324-10.272-4.174.025,4.124.025,8.398.025,8.923,0,.85.024,1.949.125,2.649h-1.55c.1-.675.125-1.749.125-2.649v-14.621Z"/>
      </g>
    </g>
    <g>
      <path class="cls-3" d="M434.732,65.825c-4.752,0-7.849,2.881-7.849,6.409v.863h7.129v9.434h-7.129v26.93h-10.225v-26.93h-4.969v-9.434h4.969v-.504c0-10.081,8.209-17.281,18.073-17.281v10.513Z"/>
      <path class="cls-3" d="M483.044,91.315c0,10.369-8.713,18.938-19.153,18.938s-18.866-8.568-18.866-18.938c0-10.513,8.425-19.01,18.866-19.01s19.153,8.497,19.153,19.01ZM472.604,91.315c0-5.112-3.745-8.784-8.713-8.784-4.681,0-8.497,3.672-8.497,8.784,0,5.185,3.816,8.785,8.497,8.785,4.968,0,8.713-3.601,8.713-8.785Z"/>
      <path class="cls-3" d="M518.178,83.035c-1.008-.36-2.088-.504-3.24-.504-3.96,0-7.345,2.952-7.345,8.784v18.146h-10.225v-36.363h10.225v2.521c2.232-2.376,5.257-3.312,8.064-3.312.864,0,1.584,0,2.521.145v10.585Z"/>
    </g>
  </g>
  <g id="_レイヤー_3" data-name="レイヤー 3">
    <g>
      <path class="cls-3" d="M589.037,120.702c-.301,1.403-1,1.608-1.553.456l-11.072-23.056c-.553-1.152-1.252-.947-1.553.456l-4.747,22.144c-.301,1.403-1.695,2.551-3.098,2.551h-7.322c-1.403,0-2.305-1.148-2.004-2.551l4.796-22.369c.301-1.403-.307-1.606-1.351-.45l-21.017,23.27c-1.044,1.156-1.651.953-1.351-.45l2.67-12.452c.301-1.403,1.418-3.482,2.483-4.62l12.985-13.874c1.065-1.138.788-2.069-.615-2.069h-7.894c-1.403,0-2.305-1.148-2.004-2.551l1.399-6.526c.301-1.403,1.695-2.551,3.098-2.551h13.82c1.403,0,2.797-1.148,3.098-2.551l.886-4.132c.301-1.403-.601-2.551-2.004-2.551h-13.82c-1.403,0-2.305-1.148-2.004-2.551l1.35-6.297c.301-1.403,1.695-2.551,3.098-2.551h.71c1.403,0,2.797-1.148,3.098-2.551l2.279-10.63c.301-1.403-.601-2.551-2.004-2.551h-.71c-1.403,0-2.305-1.148-2.004-2.551l1.325-6.183c.301-1.403,1.695-2.551,3.098-2.551h13.592c1.403,0,2.797-1.148,3.098-2.551l.153-.713c.301-1.403,1.695-2.551,3.098-2.551h7.894c1.403,0,2.305,1.148,2.004,2.551l-.153.713c-.301,1.403.601,2.551,2.004,2.551h13.481c1.403,0,2.305,1.148,2.004,2.551l-1.325,6.183c-.301,1.403-1.695,2.551-3.098,2.551h-.142c-1.403,0-2.797,1.148-3.098,2.551l-2.279,10.63c-.301,1.403.601,2.551,2.004,2.551h.142c1.403,0,2.305,1.148,2.004,2.551l-1.35,6.297c-.301,1.403-1.695,2.551-3.098,2.551h-13.823c-1.403,0-2.797,1.148-3.098,2.551l-.886,4.132c-.301,1.403.601,2.551,2.004,2.551h13.823c1.403,0,2.305,1.148,2.004,2.551l-1.399,6.526c-.301,1.403-1.695,2.551-3.098,2.551h-8.008c-1.403,0-2.075.928-1.492,2.063l7.131,13.886c.583,1.134.813,3.211.512,4.614l-2.67,12.452ZM584.29,55.425c1.403,0,2.797-1.148,3.098-2.551l2.279-10.63c.301-1.403-.601-2.551-2.004-2.551h-12.338c-1.403,0-2.797,1.148-3.098,2.551l-2.279,10.63c-.301,1.403.601,2.551,2.004,2.551h12.338ZM651.701,62.905c-.301,1.403-1.695,2.551-3.098,2.551h-2.081c-1.403,0-2.797,1.148-3.098,2.551l-11.297,52.695c-.301,1.403-1.695,2.551-3.098,2.551h-6.526c-1.403,0-2.305-1.148-2.004-2.551l11.297-52.695c.301-1.403-.601-2.551-2.004-2.551h-8.005c-1.403,0-2.797,1.148-3.098,2.551l-1.301,6.069c-.301,1.403-.89,3.695-1.309,5.093l-12.461,41.542c-.419,1.398-1.91,2.542-3.314,2.542h-6.754c-1.403,0-2.214-1.144-1.801-2.543l12.257-41.54c.413-1.399.996-3.691,1.297-5.094l9.904-46.196c.301-1.403,1.708-2.625,3.128-2.715l37.946-2.409c1.42-.09,2.335.984,2.034,2.387l-1.399,6.526c-.301,1.403-1.709,2.628-3.129,2.723l-25.712,1.71c-1.42.094-2.828,1.32-3.129,2.723l-2.572,11.995c-.301,1.403.601,2.551,2.004,2.551h26.817c1.403,0,2.305,1.148,2.004,2.551l-1.497,6.983Z"/>
      <path class="cls-3" d="M757.017,103.944c-.301,1.403-1.695,2.551-3.098,2.551h-38.105c-1.403,0-2.797,1.148-3.098,2.551l-2.499,11.655c-.301,1.403-1.695,2.551-3.098,2.551h-9.262c-1.403,0-2.305-1.148-2.004-2.551l2.499-11.655c.301-1.403-.601-2.551-2.004-2.551h-38.102c-1.403,0-2.305-1.148-2.004-2.551l1.594-7.437c.301-1.403,1.695-2.551,3.098-2.551h38.102c1.403,0,2.797-1.148,3.098-2.551l.544-2.535c.301-1.403,1.695-2.551,3.098-2.551h9.262c1.403,0,2.305,1.148,2.004,2.551l-.544,2.535c-.301,1.403.601,2.551,2.004,2.551h38.105c1.403,0,2.305,1.148,2.004,2.551l-1.594,7.437ZM767.983,38.964c-.301,1.403-1.695,2.551-3.098,2.551h-89.746c-1.403,0-2.305-1.148-2.004-2.551l1.619-7.551c.301-1.403,1.695-2.551,3.098-2.551h35.14c1.403,0,2.797-1.148,3.098-2.551l.25-1.167c.301-1.403,1.695-2.551,3.098-2.551h9.262c1.403,0,2.305,1.148,2.004,2.551l-.25,1.167c-.301,1.403.601,2.551,2.004,2.551h35.14c1.403,0,2.305,1.148,2.004,2.551l-1.619,7.551Z"/>
      <path class="cls-3" d="M688.569,60.663h2.958c1.674,0,3.461,1.192,3.971,2.65l6.481,18.496c.67,1.913-.579,3.478-2.776,3.478h-5.829c-1.682,0-3.442-1.216-3.91-2.703l-5.153-16.359"/>
      <path class="cls-3" d="M737.676,60.663h3.449c1.403,0,2.901,1,3.33,2.221l7.072,20.181c.428,1.222-.37,2.221-1.773,2.221h-7.779c-1.403,0-2.871-1.015-3.261-2.255l-5.295-16.807"/>
    </g>
    <path class="cls-1" d="M678.599,14.805c-13.919,0-14.805.886-14.805,14.805,0-13.919-.886-14.805-14.805-14.805,13.919,0,14.805-.886,14.805-14.805,0,13.919.886,14.805,14.805,14.805Z"/>
    <path class="cls-1" d="M554.172,43.465c-13.919,0-14.805.886-14.805,14.805,0-13.919-.886-14.805-14.805-14.805,13.919,0,14.805-.886,14.805-14.805,0,13.919.886,14.805,14.805,14.805Z"/>
    <path class="cls-1" d="M666.366,118.261c-13.919,0-14.805.886-14.805,14.805,0-13.919-.886-14.805-14.805-14.805,13.919,0,14.805-.886,14.805-14.805,0,13.919.886,14.805,14.805,14.805Z"/>
    <path class="cls-1" d="M782.985,113.543c-13.919,0-14.805.886-14.805,14.805,0-13.919-.886-14.805-14.805-14.805,13.919,0,14.805-.886,14.805-14.805,0,13.919.886,14.805,14.805,14.805Z"/>
    <path class="cls-1" d="M791.198,16.203c-13.919,0-14.805.886-14.805,14.805,0-13.919-.886-14.805-14.805-14.805,13.919,0,14.805-.886,14.805-14.805,0,13.919.886,14.805,14.805,14.805Z"/>
    <g>
      <path class="cls-1" d="M745.231,56.747l-13.598,25.448c-.76,1.436-2.711,2.61-4.335,2.61h-9.006c-1.624,0-2.3-1.157-1.501-2.572l16.492-29.355c.799-1.414,2.781-2.572,4.406-2.572h3.993"/>
      <polygon class="cls-1" points="745.507 59.425 749.677 61.245 745.541 43.956 726.956 51.327 731.209 53.184 745.507 59.425"/>
    </g>
    <g>
      <path class="cls-1" d="M696.08,56.747l-13.598,25.448c-.76,1.436-2.711,2.61-4.335,2.61h-9.006c-1.624,0-2.3-1.157-1.501-2.572l16.492-29.355c.799-1.414,2.781-2.572,4.406-2.572h3.993"/>
      <polygon class="cls-1" points="696.356 59.425 700.527 61.245 696.391 43.956 677.805 51.327 682.059 53.184 696.356 59.425"/>
    </g>
    <g>
      <g>
        <path class="cls-2" d="M566.123,163.224c.526,0,.956-.43.956-.956v-2.134c0-.526-.43-.956-.956-.956h-12.672v-3.084c0-.526-.43-.956-.956-.956h-3.624c-.526,0-.956.43-.956.956v14.861s0,0,0,.002v2.128c0,.526.43.956.956.956h17.211c.526,0,.956-.43.956-.956v-2.134c0-.526-.43-.956-.956-.956h-12.631v-6.771h12.672Z"/>
        <g>
          <path class="cls-2" d="M502.034,158.789c-.292.292-.835.227-1.207-.145l-1.106-1.106c-.372-.372-.437-.915-.145-1.207.292-.292.835-.227,1.207.145l1.106,1.106c.372.372.437.915.145,1.207Z"/>
          <path class="cls-2" d="M503.604,157.218c-.292.292-.835.227-1.207-.145l-1.106-1.106c-.372-.372-.437-.915-.145-1.207s.835-.227,1.207.145l1.106,1.106c.372.372.437.915.145,1.207Z"/>
        </g>
        <g>
          <path class="cls-2" d="M569.391,158.789c-.292.292-.835.227-1.207-.145l-1.106-1.106c-.372-.372-.437-.915-.145-1.207.292-.292.835-.227,1.207.145l1.106,1.106c.372.372.437.915.145,1.207Z"/>
          <path class="cls-2" d="M570.961,157.218c-.292.292-.835.227-1.207-.145l-1.106-1.106c-.372-.372-.437-.915-.145-1.207.292-.292.835-.227,1.207.145l1.106,1.106c.372.372.437.915.145,1.207Z"/>
        </g>
        <path class="cls-2" d="M456.183,158.202h-3.423c-.086,0-.172.015-.257.036h-7.019v-2.144c0-.526-.43-.956-.956-.956h-3.624c-.526,0-.956.43-.956.956v2.144h-1.347c-.526,0-.956.43-.956.956v2.066c0,.526.43.956.956.956h1.347v10.871c0,.526.43.956.956.956h13.397c.526,0,.956-.43.956-.956v-2.134c0-.526-.43-.956-.956-.956h-8.818v-7.78h5.309l-.75,2.976c-.128.51.197.927.722.927h3.423c.526,0,1.061-.417,1.189-.927l1.528-6.063c.129-.51-.196-.927-.722-.927Z"/>
        <g>
          <rect class="cls-2" x="459.784" y="155.114" width="8.536" height="4.046" rx=".956" ry=".956"/>
          <path class="cls-2" d="M462.18,173.238c-.284.442-.088.803.438.803h4.531c.526,0,1.184-.364,1.463-.81l9.459-15.079c.279-.445.078-.81-.448-.81h-4.245c-.526,0-1.189.361-1.473.803l-9.726,15.092Z"/>
        </g>
        <path class="cls-2" d="M543.171,158.41h-2.338l1.086-2.62c.201-.485-.064-.883-.59-.883h-3.853c-.526,0-1.125.395-1.333.878l-1.127,2.625h-8.961c-.526,0-.956.43-.956.956v2.134c0,.526.43.956.956.956h7.223l-4.598,10.707c-.207.483.053.878.578.878h4.139c.526,0,1.12-.397,1.322-.883l4.436-10.703h4.015c.526,0,.956-.43.956-.956v-2.134c0-.526-.43-.956-.956-.956Z"/>
        <path class="cls-2" d="M522.854,155.055h-15.223c-.526,0-1.061.417-1.189.927l-1.951,7.748c-.128.51.197.927.722.927h3.423c.526,0,1.061-.417,1.189-.927l1.166-4.629h6.484l-3.464,14.012c-.126.51.201.928.726.928h3.423c.526,0,1.059-.417,1.185-.928l4.234-17.13c.126-.51-.201-.928-.726-.928Z"/>
        <path class="cls-2" d="M498.393,158.511l-6.288.036.923-2.679c.171-.497-.119-.903-.644-.903h-3.314c-.526,0-1.096.407-1.267.903l-.923,2.679h-5.638c-.526,0-.956.43-.956.956v2.066c0,.526.43.956.956.956h4.267l-3.658,10.613c-.171.497.119.904.644.904h3.314c.526,0,1.096-.407,1.267-.904l3.658-10.613h2.644l-1.659,10.483c-.082.519.281.944.806.944h3.423c.526,0,1.023-.425,1.105-.944l2.145-13.552c.082-.519-.281-.944-.806-.944Z"/>
      </g>
      <line class="cls-4" x1="402.002" y1="165.458" x2="427.002" y2="165.458"/>
      <line class="cls-4" x1="577.924" y1="165.458" x2="602.924" y2="165.458"/>
    </g>
  </g>
</svg>