<?xml version="1.0" encoding="UTF-8"?>
<svg id="_レイヤー_1" data-name="レイヤー 1" xmlns="http://www.w3.org/2000/svg" version="1.1" viewBox="0 0 52.1 44.3">
  <defs>
    <style>
      .cls-1 {
        fill: #fff;
        font-family: Arial-BoldMT, Arial;
        font-size: 16px;
        font-weight: 700;
        letter-spacing: 0em;
      }

      .cls-1, .cls-2 {
        isolation: isolate;
      }

      .cls-3 {
        fill: #4d4d4d;
        stroke-width: 0px;
      }
    </style>
  </defs>
  <path class="cls-3" d="M.5,18.1C2.4,9.1,10.7,2,21.3.4,22.9.1,24.4,0,26,0,40.4,0,52.1,9.9,52.1,22.2c0,3.9-1.2,7.8-3.5,11-.6.8-1.2,1.6-1.9,2.4-1.2,2.1,2.4,6.3,2.1,6.3,0,.2-4.9-3-7.1-2.1-.9.6-1.9,1.1-2.8,1.6-4,2-8.5,3-13,2.9-14.4,0-26-9.9-26-22.2,0-1.4.2-2.7.5-4.1"/>
  <g class="cls-2">
    <text class="cls-1" transform="translate(7 27.3)"><tspan x="0" y="0">NEW</tspan></text>
  </g>
</svg>