<?xml version="1.0" encoding="UTF-8"?>
<svg xmlns="http://www.w3.org/2000/svg" width="861.124" height="152.93" viewBox="0 0 861.124 152.93">
  <defs>
    <style>
      .cls-1 {
        fill: #f39800;
      }

      .cls-1, .cls-2 {
        stroke-width: 0px;
      }

      .cls-3 {
        fill: #fff;
        stroke-miterlimit: 10;
        stroke-width: 1.701px;
      }

      .cls-3, .cls-4, .cls-5 {
        stroke: #fff;
      }

      .cls-4 {
        stroke-width: 2.551px;
      }

      .cls-4, .cls-5 {
        fill: none;
      }

      .cls-2 {
        fill: #b11f24;
      }

      .cls-5 {
        stroke-width: 8.504px;
      }
    </style>
  </defs>
  <g id="_レイヤー_1" data-name="レイヤー 1">
    <path class="cls-2" d="M38.275,8.323H.201v88.826h18.431v-14.166h24.473s24.909-5.478,24.909-37.878S42.188,8.323,38.275,8.323ZM38.305,67.801h-19.673V26.01h19.33c2.974,0,14.4,4.539,14.4,19.565,0,12.954-11.008,20.407-14.057,22.226Z"/>
    <g>
      <path class="cls-2" d="M7.398,130.66h1.2v21.97h-1.2v-5.899c-2.425,1.025-4.899,2.075-6.798,2.875l-.6-1.15c1.875-.649,4.649-1.774,7.398-2.898v-7.599H.7v-1.199h6.699v-6.099ZM20.37,151.03c1.274,0,1.45-1.101,1.6-5.324.325.275.825.525,1.15.6-.175,4.399-.525,5.898-2.725,5.898h-4.424c-2,0-2.625-.574-2.625-2.749v-18.771h1.225v8.798c2.524-1.524,5.224-3.374,6.824-4.924l.95,1c-2.05,1.725-5.049,3.574-7.773,5.148v8.773c0,1.274.25,1.55,1.45,1.55h4.349Z"/>
      <path class="cls-2" d="M33.937,139.183v13.672h-1.175v-21.52h8.773v7.848h-7.598ZM33.937,132.31v2.399h6.448v-2.399h-6.448ZM40.385,138.183v-2.524h-6.448v2.524h6.448ZM43.609,146.656c1.025,2.024,3.049,3.398,5.824,3.948-.275.226-.575.625-.75.925-2.674-.675-4.699-2.124-5.848-4.174-.625,1.55-2.2,3.125-6.024,4.299-.15-.249-.5-.624-.725-.85,3.949-1.124,5.324-2.699,5.773-4.148h-5.673v-1.025h5.874c.025-.199.025-.375.025-.55v-1.799h-5.474v-1h3.174c-.25-.725-.775-1.625-1.325-2.3l.975-.35c.625.774,1.25,1.85,1.475,2.574l-.2.075h3.799c.475-.75,1.125-1.925,1.425-2.725l1.1.425c-.45.775-.95,1.625-1.425,2.3h3.424v1h-5.824v1.824c0,.175,0,.35-.025.524h6.349v1.025h-5.924ZM53.082,151.155c0,.824-.2,1.225-.8,1.449-.524.2-1.6.2-3.174.2-.05-.3-.25-.85-.425-1.2,1.275.025,2.399.025,2.75.025.35-.025.475-.125.475-.475v-11.973h-7.823v-7.848h8.998v19.82ZM45.234,132.31v2.399h6.673v-2.399h-6.673ZM51.907,138.183v-2.524h-6.673v2.524h6.673Z"/>
      <path class="cls-2" d="M75.894,145.307c2.349,2.574,6.249,4.974,9.598,6.099-.3.225-.675.675-.875.999-3.399-1.3-7.473-3.999-9.897-6.823v7.224h-1.225v-7.198c-2.424,2.824-6.423,5.448-9.772,6.748-.2-.3-.55-.774-.85-.975,3.274-1.149,7.124-3.549,9.448-6.073h-6.648v-8.923h7.823v-2.5h-10.073v-1.149h10.073v-2.524h1.225v2.524h10.272v1.149h-10.272v2.5h8.248v8.923h-7.073ZM66.846,140.332h6.648v-2.898h-6.648v2.898ZM66.846,144.257h6.648v-2.925h-6.648v2.925ZM74.719,137.434v2.898h7.048v-2.898h-7.048ZM81.767,141.332h-7.048v2.925h7.048v-2.925Z"/>
      <path class="cls-2" d="M104.661,151.555l-.725-1.225c.675-.025,1.475-.15,2.024-.25,3.199-.7,6.749-3.149,6.749-7.848,0-3.949-2.774-7.424-7.573-7.648-.3,2.475-.775,5.174-1.475,7.473-1.524,5.174-3.424,7.549-5.499,7.549-1.9,0-4.074-2.25-4.074-6.323,0-5.249,4.699-9.848,10.598-9.848,5.673,0,9.272,4.023,9.272,8.848,0,5.248-3.574,8.598-9.298,9.272ZM98.238,148.206c1.225,0,2.799-1.725,4.199-6.449.675-2.225,1.175-4.748,1.424-7.148-5.173.45-8.548,4.799-8.548,8.573,0,3.524,1.7,5.024,2.924,5.024Z"/>
      <path class="cls-1" d="M129,134.509l1.4.275c-.125.475-.25.925-.375,1.424-.325,1.425-1.2,5.299-2.349,7.998-.925,2.2-2.225,4.624-3.699,6.724l-1.3-.574c1.575-2.1,2.949-4.699,3.824-6.699,1.075-2.499,2.149-6.448,2.499-9.147ZM135.173,134.709l1.25-.45c.95,1.75,2.5,4.974,3.624,7.748,1.075,2.574,2.399,6.323,3.049,8.474l-1.35.425c-.6-2.3-1.899-5.824-2.949-8.474-1.025-2.549-2.524-5.898-3.624-7.723ZM141.671,135.209l-.975.475c-.475-1.024-1.375-2.524-2.049-3.474l.95-.426c.625.9,1.55,2.375,2.074,3.425ZM144.346,134.259l-.95.475c-.575-1.124-1.399-2.499-2.099-3.448l.899-.426c.675.925,1.675,2.45,2.15,3.399Z"/>
      <path class="cls-1" d="M163.148,137.633c2.649-1.699,4.949-3.648,6.749-5.798l1.05.975c-1.925,2.024-4.149,3.898-6.799,5.648v10.822c0,.825.05,1.875.125,2.3h-1.55c.051-.4.101-1.475.101-2.3v-9.997c-2.625,1.574-6.224,3.174-9.897,4.323l-.675-1.225c4.249-1.175,8.147-3.024,10.896-4.749Z"/>
      <path class="cls-1" d="M184.74,134.284c0-.6-.051-1.649-.176-2.375h1.6c-.074.7-.149,1.775-.149,2.375v4.324c3.274.999,7.948,2.799,10.822,4.224l-.55,1.324c-2.774-1.524-7.498-3.324-10.272-4.174.025,4.124.025,8.398.025,8.923,0,.85.024,1.949.124,2.649h-1.549c.1-.675.125-1.749.125-2.649v-14.621Z"/>
      <path class="cls-1" d="M228.917,146.831h-5.799v4.574c0,.799-.199,1.149-.874,1.324-.7.175-2,.2-4.199.2-.075-.325-.275-.75-.45-1.075,1.85.025,3.35.025,3.774,0,.45-.024.574-.125.574-.475v-4.549h-15.146v-1.075h15.146v-2.274h-12.696v-7.973h7.973v-2.024h-9.822v-1.075h9.822v-2.174h1.175v2.174h9.998v1.075h-9.998v2.024h8.123v7.973h-3.399v2.274h5.799v1.075ZM210.397,139.008h6.823v-2.499h-6.823v2.499ZM210.397,142.483h6.823v-2.524h-6.823v2.524ZM211.597,147.456c1.524.949,3.273,2.399,4.148,3.424l-.975.774c-.8-1.05-2.524-2.524-4.049-3.523l.875-.675ZM218.395,136.509v2.499h6.948v-2.499h-6.948ZM225.343,139.958h-6.948v2.524h6.948v-2.524Z"/>
      <path class="cls-1" d="M247.463,140.308h-7.349v12.497h-1.199v-21.345h8.548v8.848ZM240.115,132.534v2.725h6.198v-2.725h-6.198ZM246.313,139.208v-2.949h-6.198v2.949h6.198ZM259.036,150.905c0,.975-.275,1.449-.976,1.649-.725.2-2.124.225-4.273.225-.075-.325-.3-.899-.5-1.274,1.824.075,3.449.05,3.924.024.476-.024.625-.124.625-.624v-10.598h-7.673v-8.848h8.873v19.445ZM251.312,132.534v2.725h6.523v-2.725h-6.523ZM257.835,139.233v-2.974h-6.523v2.974h6.523Z"/>
      <path class="cls-1" d="M277.661,145.656c-2.824,1.675-5.849,3.449-8.099,4.699l-.725-1.05c2.125-1.1,5.374-2.925,8.448-4.699l.375,1.05ZM289.732,137.883c-1.524,1.8-3.773,3.975-5.523,5.424,2,2.949,4.524,5.349,7.498,6.599-.274.25-.675.675-.874,1-4.475-2.1-7.898-6.599-10.073-11.947v11.997c0,1.074-.324,1.475-1.05,1.675-.699.225-2.124.25-4.323.25-.075-.325-.275-.9-.476-1.275,1.85.05,3.499.025,3.999,0,.476-.024.65-.149.65-.625v-15.196h-10.098v-1.175h10.098v-4.349h1.199v4.349h10.248v1.175h-10.248v.2c.725,2.274,1.7,4.449,2.899,6.424,1.675-1.45,3.799-3.624,5.049-5.274l1.024.75ZM275.186,142.982c-.775-1.35-2.55-3.349-4.174-4.748l.925-.575c1.6,1.375,3.424,3.324,4.198,4.648l-.949.675ZM288.132,134.209c-.999-.899-2.974-2.199-4.573-3.049l.75-.75c1.549.824,3.573,2.074,4.599,2.899l-.775.899Z"/>
      <path class="cls-1" d="M312.022,131.96c.2,3.049,1.575,15.321,11.197,19.645-.325.25-.725.675-.925,1-7.073-3.299-9.747-10.797-10.772-15.946-.874,5.273-3.324,12.347-10.447,15.946-.2-.3-.6-.675-.925-.925,10.272-4.974,10.473-17.296,10.647-20.62h1.274l-.05.9Z"/>
      <path class="cls-2" d="M337.29,151.905l-1.074-1.024c4.349-1.774,6.723-3.924,6.723-11.422v-1.1h-7.822v4.424c0,.8.074,1.949.1,2.049h-1.449c0-.1.1-1.199.1-2.049v-4.424h-3.05c-.975,0-2.249.074-2.374.074v-1.424c.1,0,1.425.124,2.374.124h3.05v-3.624c0-.425-.025-1.1-.1-1.549h1.449c0,.074-.1.749-.1,1.524v3.648h7.822v-3.424c0-.949-.1-1.774-.1-1.874h1.475c0,.1-.1.925-.1,1.874v3.424h3.274c.975,0,1.874-.1,1.999-.124v1.424c-.1,0-1.024-.074-1.999-.074h-3.274v.899c0,6.948-1.4,10.147-6.924,12.646Z"/>
      <path class="cls-2" d="M368.999,137.633c2.649-1.699,4.949-3.648,6.749-5.798l1.05.975c-1.925,2.024-4.149,3.898-6.799,5.648v10.822c0,.825.05,1.875.125,2.3h-1.55c.051-.4.101-1.475.101-2.3v-9.997c-2.625,1.574-6.224,3.174-9.897,4.323l-.675-1.225c4.249-1.175,8.147-3.024,10.896-4.749Z"/>
      <path class="cls-2" d="M390.589,134.284c0-.6-.05-1.649-.175-2.375h1.6c-.075.7-.15,1.775-.15,2.375v4.324c3.274.999,7.948,2.799,10.823,4.224l-.551,1.324c-2.773-1.524-7.498-3.324-10.272-4.174.025,4.124.025,8.398.025,8.923,0,.85.025,1.949.125,2.649h-1.55c.101-.675.125-1.749.125-2.649v-14.621Z"/>
    </g>
  </g>
  <g id="_レイヤー_3" data-name="レイヤー 3">
    <g>
      <g>
        <path class="cls-2" d="M433.781,42.78c-4.752,0-7.85,2.88-7.85,6.408v.864h7.129v9.433h-7.129v26.931h-10.225v-26.931h-4.969v-9.433h4.969v-.504c0-10.081,8.209-17.281,18.074-17.281v10.513Z"/>
        <path class="cls-2" d="M482.093,68.27c0,10.369-8.713,18.938-19.154,18.938s-18.865-8.568-18.865-18.938c0-10.514,8.424-19.01,18.865-19.01s19.154,8.496,19.154,19.01ZM471.652,68.27c0-5.112-3.744-8.785-8.713-8.785-4.68,0-8.496,3.673-8.496,8.785,0,5.185,3.816,8.785,8.496,8.785,4.969,0,8.713-3.601,8.713-8.785Z"/>
        <path class="cls-2" d="M517.228,59.989c-1.008-.359-2.088-.504-3.24-.504-3.961,0-7.346,2.952-7.346,8.785v18.146h-10.225v-36.363h10.225v2.521c2.232-2.377,5.258-3.312,8.064-3.312.865,0,1.584,0,2.521.144v10.585Z"/>
      </g>
      <g>
        <g>
          <rect class="cls-2" x="80.575" y="54.077" width="35.374" height="14.087"/>
          <path class="cls-2" d="M171.984,8.686v15.965h14.869v42.73c0,2.974-4.539,14.4-19.565,14.4s-22.695-14.869-22.695-14.869l-15.183,5.792s5.948,24.73,38.348,24.73,36.782-25.827,36.782-29.74V8.686h-32.556Z"/>
          <path class="cls-2" d="M38.236,8.372H.162v88.826h18.431v-14.166h24.473s24.909-5.478,24.909-37.878S42.149,8.372,38.236,8.372ZM38.266,67.85h-19.673V26.059h19.33c2.974,0,14.4,4.539,14.4,19.565,0,12.954-11.008,20.407-14.057,22.226Z"/>
          <path class="cls-2" d="M259.596,9.155c-22.756,0-41.204,18.448-41.204,41.204,0,9.562,3.39,18.25,8.855,25.241l-13.462,12.745c-3.294,3.119-3.437,8.365-.319,11.659,3.119,3.294,8.365,3.437,11.659.319l14.772-13.985c5.876,3.227,12.523,5.225,19.7,5.225,22.756,0,41.204-18.448,41.204-41.204s-18.448-41.204-41.204-41.204ZM259.596,85.47c-5.41,0-10.477-1.332-15.058-3.527-5.101-2.443-9.486-6.063-12.865-10.533-4.448-5.884-7.188-13.123-7.188-21.051,0-19.36,15.75-35.111,35.111-35.111s35.111,15.75,35.111,35.111-15.751,35.111-35.111,35.111Z"/>
        </g>
        <path class="cls-2" d="M311.76,100.147V9.637h29.036c16.765,0,28.792,7.046,28.792,23.933,0,6.318-2.065,11.298-6.438,15.308,8.14,5.59,12.271,13.365,12.271,22.112,0,18.467-15.429,29.158-32.074,29.158h-31.586ZM340.066,43.41c9.111,0,10.206-4.616,10.206-8.382,0-6.926-4.982-8.383-10.206-8.383h-9.476v16.765h9.476ZM343.954,83.138c7.775,0,12.149-4.496,12.149-11.542,0-7.291-4.374-11.785-12.149-11.785h-13.364v23.326h13.364Z"/>
      </g>
      <g>
        <path class="cls-2" d="M542.146,85.438c.294-1.372,1.683-2.494,3.086-2.494h7.551c1.403,0,3.35-.256,4.326-.57s2.796-3.713,3.228-5.048l23.123-71.513c.432-1.335,1.933-2.427,3.336-2.427h13.82c1.403,0,2.21,1.096,1.793,2.436l-25.255,81.185c-.417,1.34-1.381,3.4-2.142,4.579l-10.359,7.921c-1.339.42-3.582.764-4.985.764h-18.151c-1.403,0-2.311-1.123-2.016-2.494l2.645-12.337ZM612.727,91.935c-.298-1.371-.407-3.633-.243-5.027l9.533-80.989c.164-1.394,1.446-2.534,2.849-2.534h5.269c1.403,0,2.311,1.123,2.016,2.494l-3.085,14.388c-.294,1.372.613,2.494,2.016,2.494h5.614c1.403,0,2.43,1.142,2.281,2.537l-5.523,51.918c-.148,1.395-.091,3.255.128,4.132s3.599,1.595,5.003,1.595h7.548c1.403,0,2.311,1.123,2.016,2.494l-2.645,12.337c-.294,1.372-1.683,2.494-3.086,2.494h-18.151c-1.403,0-3.63-.392-4.949-.871l-6.593-7.464Z"/>
        <path class="cls-2" d="M710.671,49.421c.294-1.372-.428-1.87-1.606-1.106l-26.83,17.398c-1.177.763-3.171,1.895-4.43,2.514l-7.272,2.31c-1.392.179-3.678.325-5.082.325h-8.688c-1.403,0-2.311-1.123-2.016-2.494l2.645-12.337c.294-1.372,1.683-2.494,3.086-2.494h4.243c1.403,0,3.451-.128,4.55-.284s5.078-2.277,6.255-3.04l66.94-43.388c1.177-.763,3.171-1.894,4.43-2.514l7.269-2.31c1.392-.179,3.678-.326,5.082-.326h8.691c1.403,0,2.311,1.123,2.016,2.494l-2.645,12.337c-.294,1.372-1.683,2.494-3.086,2.494h-4.243c-1.403,0-3.451.128-4.55.284s-5.077,2.278-6.253,3.043l-12.017,7.817c-1.176.765-2.379,2.514-2.673,3.886l-13.666,63.744c-.294,1.372-1.683,2.494-3.086,2.494h-15.414c-1.403,0-2.311-1.123-2.016-2.494l10.367-48.355Z"/>
        <path class="cls-2" d="M787.384,3.029c.294-1.372,1.683-2.494,3.086-2.494h14.843c1.403,0,2.311,1.123,2.016,2.494l-7.019,32.74c-.294,1.372.607,2.611,2.003,2.754l56.272,5.751c1.396.143,2.297,1.382,2.003,2.754l-3.011,14.045c-.294,1.372-1.677,2.378-3.073,2.235l-56.272-5.751c-1.396-.143-2.779.863-3.073,2.235l-8.265,38.552c-.294,1.372-1.683,2.494-3.086,2.494h-14.843c-1.403,0-2.311-1.123-2.016-2.494l20.435-95.315Z"/>
      </g>
      <g>
        <g>
          <circle class="cls-5" cx="646.192" cy="17.811" r="13.559"/>
          <circle class="cls-1" cx="646.192" cy="17.811" r="13.559"/>
        </g>
        <circle class="cls-2" cx="646.192" cy="17.811" r="11.64"/>
        <path class="cls-3" d="M646.884,16.6v-7.199c0-.199-.161-.36-.36-.36s-.36.161-.36.36v7.2c-.653.162-1.139.748-1.139,1.451,0,.079.011.155.023.231l-6.964,2.931c-.183.077-.269.288-.192.471.058.138.191.22.332.22.046,0,.094-.009.14-.028l6.964-2.931c.273.365.706.605,1.197.605.828,0,1.499-.671,1.499-1.499,0-.703-.486-1.289-1.14-1.451Z"/>
      </g>
      <g>
        <g>
          <circle class="cls-4" cx="677.085" cy="17.811" r="13.559"/>
          <circle class="cls-1" cx="677.085" cy="17.811" r="13.559"/>
        </g>
        <circle class="cls-2" cx="677.085" cy="17.811" r="11.64"/>
        <path class="cls-3" d="M676.579,16.6v-7.199c0-.199.161-.36.36-.36s.36.161.36.36v7.2c.653.162,1.139.748,1.139,1.451,0,.079-.011.155-.023.231l6.964,2.931c.183.077.269.288.192.471-.058.138-.191.22-.332.22-.046,0-.094-.009-.14-.028l-6.964-2.931c-.273.365-.706.605-1.197.605-.828,0-1.499-.671-1.499-1.499,0-.703.486-1.289,1.14-1.451Z"/>
      </g>
    </g>
  </g>
</svg>