<?xml version="1.0" encoding="UTF-8"?>
<svg id="_レイヤー_4" data-name="レイヤー 4" xmlns="http://www.w3.org/2000/svg" width="3428.569" height="484.07" viewBox="0 0 3428.569 484.07">
  <defs>
    <style>
      .cls-1 {
        fill: none;
        stroke: #fff;
        stroke-linejoin: round;
        stroke-width: 11.25px;
      }

      .cls-2 {
        fill: #fff;
        stroke-width: 0px;
      }
    </style>
  </defs>
  <g>
    <path class="cls-2" d="M309.596,148.08L154.833,58.767,0,148.08v178.776l154.833,89.389,154.763-89.389v-178.776ZM306.372,324.972l-151.539,87.522L3.243,324.972l-.037-175.006L154.833,62.519l151.539,87.446v175.006Z"/>
    <path class="cls-2" d="M156.548,155.547l68.429-39.481-70.145-40.499-70.132,40.499L12.859,157.583v80.923l70.125,40.461h0v80.998l73.564,42.422v-80.961l70.12,40.461v-84.92l68.366-39.462-70.057-40.518-68.429,39.537h0v-80.979ZM153.098,238.487v77.02s-65.708-37.973-66.663-38.538v-77.001s66.041,38.161,66.663,38.52ZM16.291,159.506c4.732,2.715,65.091,37.52,66.694,38.482v77.001c-4.72-2.734-65.073-37.539-66.669-38.463,0-1.866-.025-71.571-.025-77.02ZM153.098,396.429c-4.714-2.715-65.079-37.558-66.663-38.463v-77.039s65.707,37.973,66.663,38.538v76.963ZM223.218,355.968c-4.676-2.715-65.042-37.539-66.669-38.463v-77.039c4.72,2.715,65.067,37.558,66.669,38.5v77.001ZM86.435,196.008v-76.963c.226.151,66.323,38.274,66.663,38.463v77.039s-66.437-38.388-66.663-38.538Z"/>
  </g>
  <g>
    <path class="cls-2" d="M463.412,268.978c-7.36,7.429-16.184,11.087-26.497,11.087-9.955,0-18.622-3.733-25.887-11.237-7.334-7.505-10.992-16.404-10.992-26.585,0-9.955,3.721-18.609,11.112-25.943,7.372-7.316,16.189-10.993,26.295-10.993,9.98,0,18.609,3.677,25.969,11.068,7.347,7.391,11.042,16.007,11.042,25.868,0,10.37-3.695,19.307-11.042,26.735ZM379.831,186.886v163.957h23.473v-74.437c4.934,8.22,11.212,14.499,18.836,18.816,7.592,4.356,15.492,6.524,23.825,6.524,14.279,0,26.736-5.883,37.238-17.61,10.508-11.728,15.787-25.737,15.787-41.894,0-16.026-5.172-29.771-15.536-41.309-10.338-11.482-22.726-17.327-37.087-17.327-17.497,0-31.851,8.56-43.063,25.679v-22.399h-23.473Z"/>
    <path class="cls-2" d="M532.853,122.631l23.474,12.453v175.873l-23.474-12.453V122.631Z"/>
    <path class="cls-2" d="M597.636,186.886h23.493v63.012c0,19.382,8.485,29.073,25.567,29.073,7.579,0,13.575-2.564,17.949-7.768,4.45-5.204,6.674-12.331,6.674-21.305v-63.012h23.471v66.782c0,13.99-4.525,25.491-13.666,34.541-9.163,9.012-20.815,13.537-34.956,13.537-14.518,0-26.189-4.525-35.106-13.537-8.975-9.05-13.425-20.834-13.425-35.371v-65.953Z"/>
    <path class="cls-2" d="M802.562,200.159l-15.699,13.802c-4.072-2.979-7.617-5.167-10.621-6.712-2.992-1.546-6.461-2.319-10.571-2.319-9.641,0-14.405,3.563-14.405,10.634,0,5.034,6.071,9.974,18.176,14.763,12.155,4.751,20.904,9.993,26.208,15.687,5.329,5.732,7.994,12.595,7.994,20.608,0,9.408-3.847,17.591-11.576,24.643-7.655,6.976-16.705,10.483-27.113,10.483-15.875,0-28.835-7.372-38.954-22.135l18.553-8.936c6.524,6.486,13.349,9.747,20.438,9.747,4.915,0,9.239-1.339,12.896-4.016,3.696-2.621,5.519-5.732,5.519-9.276,0-6.241-6.461-11.916-19.32-16.931-12.858-5.091-21.783-10.181-26.698-15.253-4.978-5.109-7.429-11.369-7.429-18.854,0-9.295,3.507-17.044,10.52-23.172,7.026-6.184,15.85-9.314,26.472-9.314,10.558,0,22.475,5.543,35.61,16.554Z"/>
    <path class="cls-2" d="M968.732,181.833l31.261,74.399,33.033-69.346h20.4l-54.716,114.861-30.242-71.948-29.715,70.855-54.728-113.767h20.602l33.108,68.856,30.997-73.909Z"/>
    <path class="cls-2" d="M1154.713,267.45c-7.316,7.221-15.838,10.803-25.604,10.803-10.005,0-18.779-3.488-26.208-10.558-7.429-6.976-11.199-15.196-11.199-24.586,0-9.842,3.695-18.289,11.086-25.378,7.315-7.052,16.102-10.634,26.321-10.634,9.917,0,18.502,3.507,25.755,10.483,7.24,7.014,10.86,15.253,10.86,24.699,0,9.577-3.695,17.987-11.011,25.17ZM1086.824,283.967c12.193,11.86,26.547,17.78,43.063,17.78,15.461,0,29.112-5.995,40.889-17.95,11.802-11.991,17.71-25.849,17.71-41.555s-6.021-29.319-18.05-41.065c-12.029-11.69-26.069-17.572-42.196-17.572-15.612,0-29.488,5.995-41.555,17.855-12.067,11.935-18.113,25.51-18.113,40.782,0,15.951,6.084,29.903,18.251,41.725Z"/>
    <path class="cls-2" d="M1243.014,186.886v23.097c5.279-9.258,10.383-16.007,15.397-20.118,5.015-4.148,11.539-6.259,19.647-6.259,2.262,0,5.543.584,9.729,1.659l-6.825,23.568c-4.563-.886-7.555-1.357-9.013-1.357-7.994,0-14.707,2.791-20.061,8.315-5.43,5.562-8.108,12.5-8.108,20.815v61.899h-23.493v-111.618h22.726Z"/>
    <path class="cls-2" d="M1321.197,122.631h23.48v113.314l45.49-49.059h30.695l-47.815,51.605,48.557,60.013h-29.287l-47.639-58.882v58.882h-23.48V122.631Z"/>
  </g>
  <g>
    <path class="cls-2" d="M451.093,404.887l-10.831,10.713c-6.854-7.252-14.845-10.877-23.971-10.877-7.955,0-14.616,2.637-19.985,7.91-5.37,5.273-8.055,11.682-8.055,19.227,0,7.799,2.786,14.41,8.358,19.83s12.446,8.129,20.621,8.129c5.315,0,9.798-1.117,13.445-3.35,3.648-2.234,6.59-5.732,8.826-10.492h-23.4v-14.447h40.648l.11,3.406c0,7.068-1.832,13.77-5.493,20.104-3.662,6.336-8.404,11.17-14.228,14.502-5.822,3.332-12.652,5-20.489,5-8.386,0-15.866-1.822-22.439-5.467-6.573-3.643-11.773-8.834-15.6-15.572-3.827-6.738-5.741-14.008-5.741-21.809,0-10.691,3.534-19.994,10.603-27.904,8.385-9.412,19.299-14.117,32.738-14.117,7.031,0,13.604,1.301,19.721,3.9,5.163,2.197,10.217,5.969,15.161,11.314Z"/>
    <path class="cls-2" d="M477.647,391.705h16.295c8.925,0,15.28.795,19.066,2.389s6.831,4.238,9.136,7.938,3.457,8.074,3.457,13.129c0,5.311-1.272,9.75-3.817,13.32s-6.381,6.271-11.506,8.102l19.142,35.926h-16.814l-18.17-34.223h-1.408v34.223h-15.38v-80.803ZM493.027,423.289h4.819c4.892,0,8.26-.643,10.104-1.928s2.766-3.418,2.766-6.395c0-1.762-.457-3.297-1.369-4.602-.913-1.303-2.137-2.24-3.669-2.811-1.533-.57-4.344-.854-8.433-.854h-4.218v16.588Z"/>
    <path class="cls-2" d="M585.635,389.672c11.433,0,21.263,4.139,29.489,12.414,8.228,8.277,12.341,18.365,12.341,30.268,0,11.791-4.059,21.771-12.176,29.938s-17.965,12.25-29.544,12.25c-12.13,0-22.207-4.193-30.232-12.58-8.024-8.385-12.037-18.348-12.037-29.883,0-7.727,1.868-14.83,5.606-21.312,3.737-6.482,8.877-11.619,15.418-15.408,6.54-3.791,13.585-5.686,21.135-5.686ZM585.47,404.723c-7.479,0-13.766,2.602-18.86,7.801-5.096,5.199-7.644,11.811-7.644,19.83,0,8.936,3.207,16.004,9.623,21.203,4.985,4.064,10.704,6.098,17.156,6.098,7.294,0,13.508-2.637,18.641-7.91,5.132-5.273,7.698-11.773,7.698-19.5s-2.585-14.201-7.754-19.529c-5.168-5.328-11.455-7.992-18.86-7.992Z"/>
    <path class="cls-2" d="M647.042,391.705h15.437v52.252c0,4.5.393,7.684,1.181,9.549.787,1.867,2.087,3.359,3.9,4.475,1.812,1.115,4,1.674,6.563,1.674,2.71,0,5.045-.621,7.004-1.867,1.959-1.242,3.314-2.826,4.065-4.746.75-1.922,1.126-5.59,1.126-11.006v-50.33h15.436v48.174c0,8.129-.458,13.77-1.373,16.918-.916,3.15-2.664,6.189-5.246,9.119s-5.558,5.1-8.927,6.51c-3.369,1.408-7.287,2.115-11.755,2.115-5.859,0-10.959-1.346-15.299-4.039-4.339-2.691-7.442-6.061-9.311-10.107-1.867-4.045-2.802-10.885-2.802-20.516v-48.174Z"/>
    <path class="cls-2" d="M725.177,391.705h16.314c8.825,0,15.188.814,19.088,2.443,3.9,1.631,6.977,4.268,9.229,7.91,2.253,3.645,3.379,8.012,3.379,13.102,0,5.639-1.475,10.326-4.422,14.062-2.948,3.734-6.949,6.336-12.003,7.799-2.966.844-8.368,1.264-16.204,1.264v34.223h-15.381v-80.803ZM740.558,423.289h4.889c3.845,0,6.518-.275,8.02-.826,1.501-.551,2.683-1.459,3.543-2.729.86-1.268,1.291-2.801,1.291-4.602,0-3.123-1.208-5.4-3.625-6.834-1.758-1.066-5.018-1.598-9.778-1.598h-4.339v16.588Z"/>
  </g>
  <g>
    <g>
      <path class="cls-2" d="M1920.297,37.991c3.711-6.559,6.062-13.117,7.92-20.295.742-2.599,1.236-5.568,1.484-8.786,5.32,1.114,9.033,1.98,13.24,3.342,1.609.618,2.723,1.113,2.723,2.104s-.123,1.608-.742,2.475-1.113,2.228-2.104,5.445c-.123.618-.371,1.237-.619,1.856h6.312v-.372c0-8.786-.248-13.364-1.115-20.047,5.941.124,11.385.371,17.201.99,1.486.123,2.475.866,2.475,1.608,0,1.113-.494,1.98-.865,2.847-.742,1.608-.867,4.454-.867,14.23v.743h6.807c10.643,0,14.232-.248,14.975-.248,1.607,0,1.732.124,1.732,1.732v12.128c0,1.608-.125,1.732-1.732,1.732-.742,0-4.332-.248-14.975-.248h-6.807v13.365h10.148c11.508,0,15.592-.248,16.459-.248,1.607,0,1.732.124,1.732,1.732v12.375c0,1.609-.125,1.732-1.732,1.732-.867,0-4.951-.247-16.459-.247h-4.826c6.188,10.023,15.717,18.81,25.986,25.739-2.35,3.094-4.826,7.92-6.805,12.994-.867,2.228-1.486,3.341-2.352,3.341-.742,0-1.732-.742-3.219-2.228-7.672-7.548-14.354-15.592-19.428-24.873.248,16.335.867,31.927.867,34.773,0,1.608-.125,1.732-1.734,1.732h-14.105c-1.609,0-1.734-.124-1.734-1.732,0-2.847.619-18.191.867-34.278-5.32,9.652-12.375,17.819-21.533,25.244-1.732,1.485-2.721,2.228-3.588,2.228-.99,0-1.732-1.237-2.846-3.588-1.98-3.96-4.58-7.549-7.055-10.024,10.891-7.177,21.162-16.829,28.463-29.328h-1.238c-11.631,0-15.715.247-16.582.247-.619,0-.99,0-1.236-.123-1.115,2.228-2.229,4.578-2.971,6.683-.619,1.608-1.113,2.475-1.732,2.475s-1.361-.99-2.352-2.723c-1.732-3.465-3.465-7.178-4.826-10.89.123,28.833.867,51.851.867,54.325,0,1.609-.125,1.732-1.732,1.732h-13.613c-1.609,0-1.732-.123-1.732-1.732,0-2.475.742-23.389.867-48.262-2.477,7.425-5.693,14.479-9.529,20.79-.867,1.608-1.609,2.475-2.229,2.475s-1.113-.866-1.732-2.723c-1.484-4.826-3.711-10.023-5.443-13.241,7.547-9.404,13.734-21.532,17.818-35.516h-1.607c-8.168,0-10.768.248-11.633.248-1.609,0-1.732-.124-1.732-1.609v-12.498c0-1.609.123-1.732,1.732-1.732.865,0,3.465.247,11.633.247h2.475v-3.713c0-8.167-.125-12.498-1.113-18.933,5.939.123,11.014.371,16.211.989,1.484.124,2.475.743,2.475,1.609,0,1.237-.371,1.979-.742,2.846-.742,1.608-.99,3.465-.99,13.241v3.96c4.578-.124,6.188-.247,6.807-.247,1.607,0,1.732.123,1.732,1.732v10.395ZM1936.754,39.229c-1.113,2.599-2.35,5.197-3.588,7.673-1.113,2.228-1.732,3.341-2.723,3.341-.742,0-1.732-.742-3.588-2.228-2.848-2.351-5.816-4.083-9.406-5.321.248-.371.496-.618.619-.989-1.855,0-3.713-.124-5.568-.248,2.6,6.436,6.311,12.622,10.52,18.191v-5.569c0-1.608.123-1.732,1.607-1.732.867,0,4.951.248,16.582.248h7.303v-13.365h-11.758Z"/>
      <path class="cls-2" d="M2027.959,42.446c-10.766,0-14.479.247-15.221.247-1.609,0-1.732-.123-1.732-1.855v-13.365c0-1.608.123-1.732,1.732-1.732.742,0,4.455.247,15.221.247h45.045v-1.732c0-8.786-.125-12.746-.99-20.047,5.939.124,12.127.371,17.943.99,1.484.123,2.352.866,2.352,1.732,0,1.113-.496,1.979-.867,2.846-.742,1.732-.742,4.455-.742,14.107v2.104h14.479c10.766,0,14.479-.247,15.221-.247,1.609,0,1.732.124,1.732,1.732v13.365c0,1.732-.123,1.855-1.732,1.855-.742,0-4.455-.247-15.221-.247h-13.982c.988,15.592,3.094,27.72,6.311,38.238,3.342,10.89,6.682,16.582,9.281,16.582,2.352,0,3.465-5.073,4.33-15.963,2.352,2.351,6.436,5.197,9.652,6.93,4.826,2.599,4.826,2.723,3.961,7.549-2.971,16.953-8.91,23.141-16.582,23.141-10.271-.124-20.047-10.271-26.482-29.576-4.084-12.251-6.807-28.462-7.92-46.9h-45.787ZM2051.471,90.585c7.301-1.733,14.85-3.713,22.027-5.816-.371,2.846-.494,7.054-.371,10.89.123,4.95-.123,5.197-4.949,6.683-12.5,3.712-28.586,7.92-42.57,10.643-3.342.618-4.826,1.237-5.568,1.732-1.113.742-1.732.989-2.6.989-.988,0-1.607-.494-1.979-1.855-1.238-3.96-2.848-11.138-3.961-16.83,4.207-.124,8.043-.495,12.252-1.114,3.217-.494,6.559-.989,10.146-1.732v-23.636h-2.352c-10.27,0-13.736.247-14.602.247-1.484,0-1.609-.123-1.609-1.732v-12.622c0-1.608.125-1.732,1.609-1.732.865,0,4.332.247,14.602.247h22.523c10.271,0,13.736-.247,14.479-.247,1.607,0,1.732.124,1.732,1.732v12.622c0,1.609-.125,1.732-1.732,1.732-.742,0-4.207-.247-14.479-.247h-2.6v20.048ZM2105.178,5.569c1.609-.743,1.98-.619,3.094.618,2.971,3.218,6.064,7.549,8.416,11.633.742,1.485.494,1.979-1.115,2.723l-9.281,4.207c-1.607.866-2.104.742-2.846-.866-2.227-4.578-5.197-9.033-7.92-12.375-.99-1.237-.742-1.608.742-2.351l8.91-3.589Z"/>
      <path class="cls-2" d="M2220.266,54.202c0,1.609-.123,1.732-1.732,1.732-.742,0-3.959-.247-13.613-.247h-17.818c-9.529,0-12.746.247-13.488.247-1.609,0-1.732-.123-1.732-1.732v-8.415c-6.561,4.703-13.613,8.786-21.039,12.375-1.855.866-2.969,1.485-3.711,1.485-1.238,0-1.609-1.237-2.848-4.208-1.979-4.454-4.578-8.662-7.424-12.003,21.16-8.044,36.135-19.305,45.787-32.546,2.475-3.342,3.959-5.816,5.32-9.158,6.559.866,12.871,1.98,18.314,3.466,1.609.494,2.6,1.113,2.6,2.104,0,.866-.371,1.856-1.484,2.475-.619.248-1.115.619-1.609.99,12.994,14.85,30.07,25.492,50.119,31.804-2.848,3.96-5.074,8.167-6.807,12.993-1.113,2.97-1.486,4.084-2.723,4.084-.742,0-1.857-.495-3.59-1.237-7.92-3.589-15.467-7.797-22.521-12.623v8.415ZM2233.631,119.418c-.742.371-1.113.619-1.484.619-.373,0-.744-.372-1.238-1.114-1.855-3.218-3.588-6.063-5.32-8.786-20.791,2.599-43.684,4.702-66.826,6.063-1.607.124-3.217.619-4.082,1.114-.867.495-1.732.866-2.723.866-1.115,0-1.732-.743-2.229-2.723-1.236-4.702-2.227-10.395-3.094-16.335,5.074.371,8.91.371,13.613.248l2.846-.124c3.342-6.436,6.436-12.994,9.281-19.8h-11.508c-11.139,0-15.098.247-15.84.247-1.609,0-1.732-.123-1.732-1.732v-12.993c0-1.609.123-1.732,1.732-1.732.742,0,4.701.247,15.84.247h70.66c11.26,0,15.098-.247,15.963-.247,1.609,0,1.732.123,1.732,1.732v12.993c0,1.609-.123,1.732-1.732,1.732-.865,0-4.703-.247-15.963-.247h-8.91c.371.124.742.495,1.236.99,8.045,8.414,15.469,17.695,22.523,28.709.865,1.237.742,1.856-.619,2.723l-12.127,7.549ZM2204.92,40.466c3.467,0,6.064,0,8.045-.123-6.311-4.95-12.127-10.519-17.201-16.706-5.074,6.063-10.766,11.632-16.83,16.706,1.98.123,4.703.123,8.168.123h17.818ZM2192.422,79.447c-2.846,6.435-5.939,12.746-9.156,18.934,10.766-.495,21.654-1.114,32.422-2.228-2.229-2.723-4.58-5.445-7.055-8.168-.494-.494-.742-.866-.742-1.237,0-.495.496-.866,1.361-1.237l11.385-5.568c.496-.248.867-.371,1.238-.495h-29.453Z"/>
      <path class="cls-2" d="M2303.178,103.949c0,8.662.248,13.365.248,14.107,0,1.608-.123,1.732-1.732,1.732h-13.736c-1.607,0-1.732-.124-1.732-1.732,0-.866.248-5.445.248-14.107v-25.739c-2.723,2.599-5.445,4.949-8.168,7.054-1.484,1.237-2.475,1.979-3.217,1.979-.99,0-1.609-1.237-2.352-3.836-1.484-4.95-3.713-9.405-5.691-12.375,12.621-7.92,23.387-19.553,29.203-32.422h-10.643c-9.652,0-12.746.247-13.611.247-1.484,0-1.609-.124-1.609-1.732v-12.499c0-1.608.125-1.732,1.609-1.732.865,0,3.959.248,13.611.248h.867v-3.342c0-6.559-.123-10.766-.99-16.458,5.939.124,11.137.495,16.953.99,1.486.123,2.352.989,2.352,1.732,0,1.113-.248,1.855-.742,2.722-.867,1.609-.867,3.713-.867,10.147v4.208h2.229c1.238,0,2.227-.248,2.971-.619.494-.247,1.361-.618,1.732-.618.865,0,2.35.866,5.691,4.083,3.094,2.971,4.332,4.579,4.332,5.816,0,.619-.248,1.361-1.361,2.352-1.486,1.484-2.848,3.217-4.332,6.311-2.227,4.826-5.074,9.776-8.291,14.479,4.578,5.198,10.643,9.776,17.82,13.984-2.352,2.723-4.826,6.806-6.684,11.137-1.113,2.476-1.732,3.713-2.721,3.713-.867,0-1.857-.619-3.342-1.98-2.971-2.722-5.693-5.444-8.045-8.291v30.442ZM2358,99.618h8.291c11.508,0,15.592-.247,16.334-.247,1.609,0,1.732.123,1.732,1.608v13.612c0,1.485-.123,1.608-1.732,1.608-.742,0-4.826-.247-16.334-.247h-34.898c-11.631,0-15.592.247-16.457.247-1.486,0-1.609-.123-1.609-1.608v-13.612c0-1.485.123-1.608,1.609-1.608.865,0,4.826.247,16.457.247h8.787v-43.56h-3.713c-10.889,0-14.727.247-15.469.247-1.607,0-1.732-.123-1.732-1.732v-13.241c0-1.608.125-1.732,1.732-1.732.742,0,4.58.248,15.469.248h3.713v-15.469c0-8.91-.248-13.736-1.113-20.419,6.062.124,12.375.372,18.191.99,1.484.124,2.475.99,2.475,1.732,0,1.114-.248,1.856-.742,2.723-.867,1.608-.99,4.702-.99,14.603v15.84h5.568c10.889,0,14.727-.248,15.469-.248,1.607,0,1.732.124,1.732,1.732v13.241c0,1.609-.125,1.732-1.732,1.732-.742,0-4.58-.247-15.469-.247h-5.568v43.56Z"/>
      <path class="cls-2" d="M2425.196,40.095c-7.549,0-15.346.371-20.172.619-2.227.124-2.846-.371-2.969-2.476-.371-4.578-.742-11.508-.867-16.582,6.684.619,13.859.866,23.885.866h45.662c4.703,0,5.816-.371,7.672-1.361.867-.495,1.609-.742,2.229-.742.865,0,1.732.371,2.598.99,4.209,3.094,9.035,7.549,11.758,11.014.742.989,1.113,1.855,1.113,2.723,0,.989-.496,1.979-1.484,2.846-1.486,1.237-2.229,2.847-3.59,5.94-6.559,14.974-14.107,29.08-24.502,40.96-10.52,12.004-23.018,22.894-34.65,29.7-1.732,1.113-2.969,1.608-4.207,1.608-1.361,0-2.475-.618-3.959-1.855-3.838-3.218-8.91-6.312-14.975-8.787,17.697-8.909,31.061-19.8,41.457-31.803,9.527-11.014,15.592-22.027,19.922-33.66h-44.92ZM2512.563,13.612c0,7.549-6.188,13.489-13.613,13.489-7.549,0-13.611-5.94-13.611-13.489,0-7.672,6.062-13.612,13.611-13.612,7.426,0,13.613,6.064,13.613,13.612ZM2492.391,13.612c0,3.589,2.846,6.56,6.559,6.56s6.436-2.971,6.436-6.56c0-3.712-2.723-6.559-6.436-6.559s-6.559,2.847-6.559,6.559Z"/>
      <path class="cls-2" d="M2549.444,55.812c-7.178,0-13.859.371-19.182.618-1.855.124-2.475-.371-2.723-2.723-.619-3.836-1.113-9.528-1.361-15.84,7.549.743,16.336.866,24.998.866h41.209c4.207,0,6.805-.495,8.414-1.484.742-.495,1.484-.619,2.104-.619.867,0,1.732.248,2.6.866,3.34,2.599,7.178,6.312,9.898,9.405.99.99,1.361,2.228,1.361,3.217,0,1.114-.371,2.104-1.361,2.847-2.475,2.104-3.711,3.96-5.443,7.673-11.385,24.626-27.35,42.816-50.119,54.82-1.113.619-1.98.866-2.846.866-1.238,0-2.352-.619-3.713-1.732-4.084-3.713-8.414-6.312-14.479-8.786,26.111-12.499,42.445-27.72,51.479-50.118l-40.836.124ZM2556.496,27.844c-5.443,0-11.879.124-15.592.371-2.352.124-2.723-.495-2.846-3.341-.496-3.96-.619-10.271-.742-14.85,7.424.618,11.631.742,20.789.742h25.615c7.426,0,13.861-.248,19.43-.495,1.609-.124,2.104.495,2.104,1.98.248,4.207.248,9.157,0,12.869,0,2.599-.494,3.094-2.723,2.971-4.826-.124-10.271-.248-16.953-.248h-29.082Z"/>
      <path class="cls-2" d="M2706.854,19.182c3.465,0,5.445-.248,7.301-1.237.496-.248.99-.495,1.609-.495.865,0,1.98.371,2.971,1.237,3.588,2.846,7.92,7.301,10.641,11.014.619.866.99,1.608.99,2.352,0,.989-.617,1.979-1.979,2.97-2.229,1.732-3.838,3.465-5.693,6.559-4.084,6.683-8.539,13.364-14.479,21.037,12.127,9.034,22.275,17.82,34.154,30.071.867.742,1.238,1.361,1.238,1.979,0,.495-.371,1.114-1.113,1.98-3.342,3.712-7.426,7.796-11.139,11.261-.865.619-1.484.99-2.104.99s-1.238-.371-1.98-1.237c-10.27-12.004-19.924-21.656-31.184-30.938-12.871,13.86-28.34,25.616-41.58,32.793-1.238.619-2.475,1.114-3.465,1.114-1.113,0-1.98-.495-2.723-1.361-3.342-3.96-7.92-7.673-13.24-10.643,19.551-9.652,32.051-19.429,43.311-30.689,9.9-9.9,17.078-19.429,24.008-31.185l-29.822.247c-6.684,0-14.355.248-20.791.743-1.732.247-2.227-.619-2.475-2.352-.496-4.455-.867-11.633-.867-16.83,7.549.619,15.223.619,22.771.619h35.639Z"/>
      <path class="cls-2" d="M2787.291,48.758c0,4.702,0,10.023.125,15.345,0,2.351-.248,2.475-2.723,2.599-4.455.124-10.766.124-14.479,0-2.229,0-2.723-.248-2.6-2.228.248-5.568.371-10.519.371-15.716v-13.118c0-6.93.125-11.756-.246-17.324-.125-1.361.494-1.732,2.104-1.732,7.672.247,14.85.371,23.264.371h41.457c3.959,0,5.939-.371,7.424-1.237.742-.372,1.361-.619,2.104-.619.99,0,1.98.495,3.342,1.361,3.342,2.475,8.91,7.301,11.508,10.271.619.866.867,1.732.867,2.599,0,.989-.371,2.104-1.361,3.094-1.732,1.855-2.475,4.455-3.588,8.538-4.084,14.107-9.158,26.73-15.469,37.867-7.178,12.746-16.459,24.131-27.721,34.031-1.113,1.113-2.227,1.608-3.465,1.608-.99,0-2.104-.371-3.217-1.113-4.951-2.847-10.023-4.95-15.717-6.063,13.736-10.396,24.008-22.151,31.557-35.146,6.805-11.756,11.385-23.76,14.602-38.238h-48.139v14.851Z"/>
      <path class="cls-2" d="M2908.567,72.394c-8.291,0-13.611.495-17.076.99-2.6.371-4.084.618-4.951.618-1.484,0-2.846-1.113-3.217-3.094-.99-4.95-1.855-12.498-2.104-18.934,8.785,1.361,14.973,1.609,28.586,1.609h40.342c11.385,0,19.676-.124,30.566-.372,1.732-.123,2.104.248,2.104,1.856.248,4.826.248,10.519,0,15.593,0,1.484-.494,1.979-2.104,1.979-10.643-.123-18.934-.247-29.205-.247h-42.941Z"/>
      <path class="cls-2" d="M3072.289,26.73c3.465-.124,5.32-.743,6.807-1.732.617-.495,1.359-.619,1.979-.619.99,0,1.98.371,3.094.99,3.342,2.104,7.426,5.692,11.014,8.909,1.113,1.114,1.609,2.228,1.609,3.218,0,1.114-.496,2.104-1.361,2.847-1.855,1.484-3.465,3.465-5.074,6.806-7.301,14.479-16.088,28.215-25.986,38.981-10.148,11.385-24.998,23.388-37.744,30.565-.865.619-1.609.866-2.352.866-1.236,0-2.475-.618-4.084-1.856-3.836-2.97-9.281-5.815-15.096-7.425,18.066-9.899,29.203-18.067,41.703-31.061,10.643-11.385,16.334-19.8,23.512-34.526l-27.473.866c-9.775,11.633-16.088,18.562-23.512,24.998-1.113.989-2.104,1.484-3.217,1.484-.744,0-1.609-.371-2.6-1.113-3.342-2.599-9.281-5.445-14.479-6.807,16.582-13.364,26.977-26.234,34.402-38.238,4.33-7.054,6.807-12.251,8.043-17.696,7.674,2.476,13.613,4.95,18.439,7.92.99.619,1.484,1.485,1.484,2.352,0,.99-.619,1.979-1.609,2.599-1.484.866-2.598,2.599-3.465,3.589-1.484,1.856-2.35,3.341-3.34,4.579l19.305-.495Z"/>
    </g>
    <g>
      <path class="cls-2" d="M1920.297,221.309c3.711-6.559,6.062-13.117,7.92-20.295.742-2.599,1.236-5.568,1.484-8.786,5.32,1.114,9.033,1.98,13.24,3.342,1.609.618,2.723,1.113,2.723,2.104s-.123,1.608-.742,2.475-1.113,2.228-2.104,5.445c-.123.618-.371,1.237-.619,1.856h6.312v-.372c0-8.786-.248-13.364-1.115-20.047,5.941.124,11.385.371,17.201.99,1.486.123,2.475.866,2.475,1.608,0,1.114-.494,1.98-.865,2.847-.742,1.608-.867,4.454-.867,14.23v.743h6.807c10.643,0,14.232-.248,14.975-.248,1.607,0,1.732.124,1.732,1.732v12.128c0,1.608-.125,1.732-1.732,1.732-.742,0-4.332-.248-14.975-.248h-6.807v13.365h10.148c11.508,0,15.592-.248,16.459-.248,1.607,0,1.732.124,1.732,1.732v12.376c0,1.609-.125,1.732-1.732,1.732-.867,0-4.951-.248-16.459-.248h-4.826c6.188,10.025,15.717,18.811,25.986,25.74-2.35,3.094-4.826,7.92-6.805,12.994-.867,2.227-1.486,3.342-2.352,3.342-.742,0-1.732-.742-3.219-2.229-7.672-7.549-14.354-15.592-19.428-24.873.248,16.334.867,31.928.867,34.773,0,1.609-.125,1.732-1.734,1.732h-14.105c-1.609,0-1.734-.123-1.734-1.732,0-2.846.619-18.191.867-34.279-5.32,9.652-12.375,17.82-21.533,25.246-1.732,1.484-2.721,2.227-3.588,2.227-.99,0-1.732-1.236-2.846-3.588-1.98-3.961-4.58-7.549-7.055-10.023,10.891-7.178,21.162-16.83,28.463-29.33h-1.238c-11.631,0-15.715.248-16.582.248-.619,0-.99,0-1.236-.123-1.115,2.227-2.229,4.578-2.971,6.682-.619,1.609-1.113,2.475-1.732,2.475s-1.361-.99-2.352-2.723c-1.732-3.465-3.465-7.178-4.826-10.889.123,28.834.867,51.85.867,54.326,0,1.607-.125,1.732-1.732,1.732h-13.613c-1.609,0-1.732-.125-1.732-1.732,0-2.477.742-23.389.867-48.264-2.477,7.426-5.693,14.48-9.529,20.791-.867,1.609-1.609,2.475-2.229,2.475s-1.113-.865-1.732-2.723c-1.484-4.826-3.711-10.023-5.443-13.24,7.547-9.406,13.734-21.534,17.818-35.518h-1.607c-8.168,0-10.768.248-11.633.248-1.609,0-1.732-.124-1.732-1.609v-12.498c0-1.609.123-1.732,1.732-1.732.865,0,3.465.247,11.633.247h2.475v-3.713c0-8.167-.125-12.498-1.113-18.934,5.939.124,11.014.372,16.211.99,1.484.124,2.475.743,2.475,1.609,0,1.237-.371,1.979-.742,2.846-.742,1.608-.99,3.465-.99,13.241v3.96c4.578-.124,6.188-.247,6.807-.247,1.607,0,1.732.123,1.732,1.732v10.395ZM1936.754,222.546c-1.113,2.599-2.35,5.197-3.588,7.673-1.113,2.228-1.732,3.341-2.723,3.341-.742,0-1.732-.742-3.588-2.228-2.848-2.351-5.816-4.083-9.406-5.321.248-.371.496-.618.619-.989-1.855,0-3.713-.124-5.568-.248,2.6,6.436,6.311,12.622,10.52,18.191v-5.569c0-1.608.123-1.732,1.607-1.732.867,0,4.951.248,16.582.248h7.303v-13.365h-11.758Z"/>
      <path class="cls-2" d="M2027.959,225.764c-10.766,0-14.479.247-15.221.247-1.609,0-1.732-.123-1.732-1.855v-13.365c0-1.608.123-1.732,1.732-1.732.742,0,4.455.247,15.221.247h45.045v-1.732c0-8.786-.125-12.746-.99-20.047,5.939.124,12.127.371,17.943.99,1.484.123,2.352.866,2.352,1.732,0,1.113-.496,1.979-.867,2.846-.742,1.732-.742,4.455-.742,14.107v2.104h14.479c10.766,0,14.479-.247,15.221-.247,1.609,0,1.732.124,1.732,1.732v13.365c0,1.732-.123,1.855-1.732,1.855-.742,0-4.455-.247-15.221-.247h-13.982c.988,15.592,3.094,27.721,6.311,38.24,3.342,10.889,6.682,16.582,9.281,16.582,2.352,0,3.465-5.074,4.33-15.965,2.352,2.352,6.436,5.197,9.652,6.93,4.826,2.6,4.826,2.723,3.961,7.549-2.971,16.955-8.91,23.143-16.582,23.143-10.271-.125-20.047-10.271-26.482-29.576-4.084-12.252-6.807-28.463-7.92-46.902h-45.787ZM2051.471,273.902c7.301-1.732,14.85-3.713,22.027-5.816-.371,2.848-.494,7.055-.371,10.891.123,4.949-.123,5.197-4.949,6.682-12.5,3.713-28.586,7.92-42.57,10.643-3.342.619-4.826,1.238-5.568,1.732-1.113.742-1.732.99-2.6.99-.988,0-1.607-.494-1.979-1.855-1.238-3.961-2.848-11.139-3.961-16.83,4.207-.123,8.043-.494,12.252-1.113,3.217-.496,6.559-.99,10.146-1.732v-23.637h-2.352c-10.27,0-13.736.248-14.602.248-1.484,0-1.609-.125-1.609-1.734v-12.622c0-1.608.125-1.732,1.609-1.732.865,0,4.332.248,14.602.248h22.523c10.271,0,13.736-.248,14.479-.248,1.607,0,1.732.124,1.732,1.732v12.622c0,1.609-.125,1.734-1.732,1.734-.742,0-4.207-.248-14.479-.248h-2.6v20.047ZM2105.178,188.887c1.609-.743,1.98-.619,3.094.618,2.971,3.218,6.064,7.549,8.416,11.633.742,1.484.494,1.979-1.115,2.723l-9.281,4.207c-1.607.866-2.104.742-2.846-.866-2.227-4.579-5.197-9.033-7.92-12.375-.99-1.237-.742-1.608.742-2.351l8.91-3.589Z"/>
      <path class="cls-2" d="M2220.266,237.52c0,1.609-.123,1.732-1.732,1.732-.742,0-3.959-.247-13.613-.247h-17.818c-9.529,0-12.746.247-13.488.247-1.609,0-1.732-.123-1.732-1.732v-8.415c-6.561,4.703-13.613,8.786-21.039,12.376-1.855.865-2.969,1.484-3.711,1.484-1.238,0-1.609-1.236-2.848-4.208-1.979-4.455-4.578-8.662-7.424-12.003,21.16-8.044,36.135-19.305,45.787-32.546,2.475-3.342,3.959-5.816,5.32-9.158,6.559.866,12.871,1.98,18.314,3.466,1.609.494,2.6,1.113,2.6,2.104,0,.866-.371,1.856-1.484,2.475-.619.248-1.115.619-1.609.99,12.994,14.85,30.07,25.492,50.119,31.804-2.848,3.96-5.074,8.167-6.807,12.993-1.113,2.971-1.486,4.084-2.723,4.084-.742,0-1.857-.494-3.59-1.236-7.92-3.59-15.467-7.798-22.521-12.624v8.415ZM2233.631,302.736c-.742.371-1.113.619-1.484.619-.373,0-.744-.371-1.238-1.113-1.855-3.219-3.588-6.064-5.32-8.787-20.791,2.6-43.684,4.703-66.826,6.064-1.607.123-3.217.617-4.082,1.113-.867.494-1.732.865-2.723.865-1.115,0-1.732-.742-2.229-2.723-1.236-4.701-2.227-10.395-3.094-16.334,5.074.371,8.91.371,13.613.248l2.846-.125c3.342-6.434,6.436-12.992,9.281-19.799h-11.508c-11.139,0-15.098.248-15.84.248-1.609,0-1.732-.125-1.732-1.732v-12.994c0-1.609.123-1.732,1.732-1.732.742,0,4.701.246,15.84.246h70.66c11.26,0,15.098-.246,15.963-.246,1.609,0,1.732.123,1.732,1.732v12.994c0,1.607-.123,1.732-1.732,1.732-.865,0-4.703-.248-15.963-.248h-8.91c.371.123.742.494,1.236.99,8.045,8.414,15.469,17.695,22.523,28.709.865,1.238.742,1.857-.619,2.723l-12.127,7.549ZM2204.92,223.783c3.467,0,6.064,0,8.045-.123-6.311-4.95-12.127-10.519-17.201-16.706-5.074,6.063-10.766,11.632-16.83,16.706,1.98.123,4.703.123,8.168.123h17.818ZM2192.422,262.766c-2.846,6.436-5.939,12.746-9.156,18.934,10.766-.496,21.654-1.113,32.422-2.229-2.229-2.721-4.58-5.443-7.055-8.166-.494-.496-.742-.867-.742-1.238,0-.494.496-.865,1.361-1.236l11.385-5.57c.496-.246.867-.371,1.238-.494h-29.453Z"/>
      <path class="cls-2" d="M2303.178,287.268c0,8.662.248,13.365.248,14.107,0,1.609-.123,1.732-1.732,1.732h-13.736c-1.607,0-1.732-.123-1.732-1.732,0-.865.248-5.445.248-14.107v-25.74c-2.723,2.6-5.445,4.951-8.168,7.055-1.484,1.236-2.475,1.98-3.217,1.98-.99,0-1.609-1.238-2.352-3.838-1.484-4.949-3.713-9.404-5.691-12.375,12.621-7.92,23.387-19.553,29.203-32.422h-10.643c-9.652,0-12.746.247-13.611.247-1.484,0-1.609-.124-1.609-1.732v-12.499c0-1.608.125-1.732,1.609-1.732.865,0,3.959.248,13.611.248h.867v-3.342c0-6.559-.123-10.766-.99-16.458,5.939.123,11.137.495,16.953.99,1.486.123,2.352.989,2.352,1.732,0,1.113-.248,1.855-.742,2.722-.867,1.609-.867,3.713-.867,10.147v4.208h2.229c1.238,0,2.227-.248,2.971-.619.494-.247,1.361-.618,1.732-.618.865,0,2.35.866,5.691,4.083,3.094,2.971,4.332,4.579,4.332,5.816,0,.619-.248,1.361-1.361,2.352-1.486,1.484-2.848,3.217-4.332,6.311-2.227,4.826-5.074,9.776-8.291,14.479,4.578,5.198,10.643,9.776,17.82,13.983-2.352,2.723-4.826,6.807-6.684,11.139-1.113,2.475-1.732,3.711-2.721,3.711-.867,0-1.857-.617-3.342-1.979-2.971-2.723-5.693-5.445-8.045-8.293v30.443ZM2358,282.936h8.291c11.508,0,15.592-.246,16.334-.246,1.609,0,1.732.123,1.732,1.607v13.613c0,1.484-.123,1.609-1.732,1.609-.742,0-4.826-.248-16.334-.248h-34.898c-11.631,0-15.592.248-16.457.248-1.486,0-1.609-.125-1.609-1.609v-13.613c0-1.484.123-1.607,1.609-1.607.865,0,4.826.246,16.457.246h8.787v-43.56h-3.713c-10.889,0-14.727.247-15.469.247-1.607,0-1.732-.123-1.732-1.732v-13.241c0-1.608.125-1.732,1.732-1.732.742,0,4.58.248,15.469.248h3.713v-15.469c0-8.91-.248-13.736-1.113-20.419,6.062.124,12.375.372,18.191.99,1.484.124,2.475.99,2.475,1.732,0,1.114-.248,1.856-.742,2.723-.867,1.608-.99,4.702-.99,14.603v15.84h5.568c10.889,0,14.727-.248,15.469-.248,1.607,0,1.732.124,1.732,1.732v13.241c0,1.609-.125,1.732-1.732,1.732-.742,0-4.58-.247-15.469-.247h-5.568v43.56Z"/>
      <path class="cls-2" d="M2427.424,233.312c8.787-2.723,19.182-6.683,27.596-10.89,6.188-3.094,11.014-6.188,14.604-10.024,5.197,4.331,9.9,9.652,13.117,13.489.742.742,1.113,1.608,1.113,2.475,0,1.113-.742,2.104-2.475,2.723-2.971.866-5.445,2.351-9.775,4.455-13.736,6.806-29.33,12.251-44.303,16.087v14.852c0,4.207.494,6.188,2.723,7.424,1.98.99,6.062,1.486,13.488,1.486,11.879,0,24.75-.99,37.99-3.219,2.723-.494,3.094,0,3.219,1.98.371,4.207.617,9.652.742,14.107,0,2.352-.619,2.723-2.846,2.971-14.107,1.855-25.988,2.475-40.467,2.475-12.498,0-20.418-1.486-25.492-4.455-6.064-3.59-8.043-9.9-8.043-21.285v-44.674c0-11.757-.371-18.934-1.238-25.369,8.168.743,14.975,1.609,20.047,2.97,1.732.372,2.475,1.114,2.475,2.228,0,.866-.371,1.856-.988,2.971-.99,1.979-1.486,4.949-1.486,10.519v16.706ZM2505.262,207.077c0,7.549-6.188,13.489-13.611,13.489-7.549,0-13.613-5.94-13.613-13.489,0-7.672,6.064-13.612,13.613-13.612,7.424,0,13.611,6.064,13.611,13.612ZM2485.092,207.077c0,3.589,2.846,6.559,6.559,6.559s6.434-2.97,6.434-6.559c0-3.712-2.721-6.559-6.434-6.559s-6.559,2.847-6.559,6.559Z"/>
      <path class="cls-2" d="M2539.418,255.711c-8.291,0-13.611.496-17.076.99-2.6.371-4.084.619-4.951.619-1.484,0-2.846-1.113-3.217-3.094-.99-4.951-1.855-12.498-2.104-18.935,8.785,1.361,14.973,1.609,28.586,1.609h40.342c11.385,0,19.676-.124,30.566-.372,1.732-.123,2.104.248,2.104,1.856.248,4.827.248,10.519,0,15.593,0,1.484-.494,1.98-2.104,1.98-10.643-.123-18.934-.248-29.205-.248h-42.941Z"/>
      <path class="cls-2" d="M2671.461,244.697c0,7.92-6.311,14.232-14.23,14.232s-14.232-6.312-14.232-14.232,6.312-14.231,14.232-14.231,14.23,6.312,14.23,14.231Z"/>
      <path class="cls-2" d="M2759.077,237.024c8.291-6.188,15.469-12.869,21.16-20.789l-51.355.123c-10.643,0-16.953.371-23.635.866-2.475.124-3.342-.371-3.59-1.855-.865-5.198-1.484-12.252-1.732-16.954,10.395.742,17.943.99,28.34.99h52.592c4.332,0,6.188-.124,7.674-.866,1.113-.495,2.227-.866,2.969-.866,1.113,0,2.6.99,3.836,2.104,3.342,2.846,6.312,6.188,9.9,10.395.742.99,1.113,1.856,1.113,2.723,0,1.114-.617,2.104-1.732,2.97-2.227,1.485-3.588,3.589-5.072,5.445-5.816,7.92-12.994,16.087-21.285,22.646-1.238,1.113-2.352,1.609-3.465,1.609s-2.352-.496-3.59-1.609c-3.217-2.6-7.424-4.703-12.127-6.436-.494,12.871-2.598,23.762-7.92,33.785-4.949,9.652-12.994,18.438-22.77,24.996-1.484.99-2.846,1.609-4.207,1.609-1.238,0-2.475-.494-3.713-1.609-3.465-2.846-8.539-5.939-14.107-7.92,12.746-6.682,21.16-13.859,26.605-23.76,5.197-9.404,6.436-17.572,6.436-29.452,0-4.95-.371-8.787-1.238-12.87,7.674.495,14.85,1.484,20.543,2.599,1.732.371,2.475,1.484,2.475,2.599,0,.742-.248,1.485-.742,2.228-1.238,1.732-1.361,3.094-1.361,6.063v1.237Z"/>
      <path class="cls-2" d="M2865.133,219.823c.865.866,1.361,1.485,1.361,2.228,0,.495-.371,1.114-.99,1.98-2.848,3.712-7.301,8.91-10.148,12.127-.742.743-1.236,1.237-1.855,1.237-.496,0-.99-.494-1.732-1.237-7.92-8.415-17.078-15.592-27.473-22.027,3.588-4.455,8.168-9.281,11.633-12.869.742-.743,1.236-1.114,1.98-1.114.494,0,1.113.248,1.979.742,8.291,4.579,18.068,12.004,25.246,18.934ZM2846.817,268.086c13.613-6.93,23.389-13.117,36.506-23.512,13.242-10.52,24.133-20.419,34.773-34.403.99,7.178,2.848,14.355,4.58,18.811.494,1.113.742,1.979.742,2.846,0,1.485-.742,2.847-2.475,4.826-7.178,8.169-17.449,17.202-27.721,24.999-12.375,9.404-24.502,17.201-38.486,24.996-5.691,3.342-8.291,4.951-10.023,6.436-.99.865-1.979,1.238-2.846,1.238-.742,0-1.484-.248-2.104-.99-4.455-5.693-8.662-11.51-12.252-17.572,6.807-1.98,11.881-3.838,19.305-7.674Z"/>
      <path class="cls-2" d="M2973.538,227.001c13.488,4.208,26.854,9.281,39.725,16.954,1.484.867,2.104,1.484,2.104,2.352,0,.494-.125.99-.371,1.609-1.98,4.578-4.951,10.766-7.426,14.85-.619.99-.99,1.484-1.609,1.484-.371,0-.988-.246-1.732-.742-11.879-7.92-21.902-12.871-30.812-15.84v24.75c0,9.033.123,15.963.371,25.615.248,1.98-.371,2.352-2.227,2.352-4.951.371-10.148.371-15.223,0-2.227,0-2.723-.371-2.723-2.227.248-10.891.496-18.314.496-25.988v-61.751c0-11.262-.371-16.211-1.113-20.914,7.301.248,14.23.866,19.799,2.104,1.855.494,2.6,1.36,2.6,2.599,0,.866-.371,1.979-.867,3.217-.619,1.361-.99,4.208-.99,10.519v19.058ZM3001.504,195.569c.373-.248.619-.372.867-.372.371,0,.742.248,1.238.619,3.588,2.723,8.908,9.157,12.127,13.983.248.371.371.619.371.99,0,.495-.248.866-.742,1.237l-5.941,4.455c-.371.371-.742.495-.988.495-.496,0-.867-.248-1.238-.866-3.342-5.074-8.414-11.509-13.117-15.345l7.424-5.197ZM3013.137,186.906c.371-.247.619-.371.867-.371.494,0,.865.247,1.484.742,3.961,3.218,9.281,9.158,11.881,13.241.371.371.494.866.494,1.237s-.123.743-.742,1.238l-5.816,4.578c-.371.248-.742.371-.99.371-.494,0-.865-.247-1.236-.742-3.094-4.95-8.045-11.138-12.994-15.345l7.053-4.95Z"/>
      <path class="cls-2" d="M3080.211,244.697c0,7.92-6.311,14.232-14.23,14.232s-14.232-6.312-14.232-14.232,6.312-14.231,14.232-14.231,14.23,6.312,14.23,14.231Z"/>
      <path class="cls-2" d="M3117.832,226.135c.742-1.237,1.361-1.608,2.969-1.113,10.271,3.712,17.326,7.054,24.875,12.374,1.484.99,2.104,1.609,2.104,2.352,0,.372-.125.866-.496,1.485-1.979,4.084-4.949,9.158-7.549,12.871-.617.988-1.113,1.484-1.732,1.484-.371,0-.865-.248-1.484-.742-8.168-5.941-16.334-10.271-27.225-14.727,3.588-6.064,6.436-10.767,8.539-13.984ZM3138.993,272.17c11.139-5.691,21.162-11.633,31.928-19.801,12.25-9.279,25.492-20.913,39.229-37.495,1.113,7.301,2.723,12.251,4.33,16.953.619,1.361.867,2.599.867,3.836,0,1.609-.619,2.971-2.104,4.456-11.633,12.127-19.924,19.428-31.557,28.215-11.014,8.168-23.141,15.592-37.99,23.637-2.723,1.484-5.939,3.094-8.168,4.701-.619.619-1.484.99-2.227.99-.99,0-1.98-.494-2.971-1.732-3.342-3.588-7.672-10.271-11.262-16.459,6.188-1.113,11.756-3.34,19.924-7.301ZM3133.547,196.559c.744-1.113,1.238-1.608,1.857-1.608.494,0,.99.124,1.607.495,8.539,3.589,17.078,8.167,24.875,14.603,1.113.866,1.607,1.484,1.607,2.104,0,.495-.246.99-.617,1.608-2.477,4.084-5.816,9.157-8.539,12.499-.619.866-1.113,1.113-1.486,1.113-.617,0-1.236-.371-1.979-1.113-7.178-5.94-16.211-12.004-26.111-16.459,3.465-5.321,6.311-9.404,8.785-13.241ZM3191.709,193.713c.371-.248.619-.371.867-.371.371,0,.742.247,1.236.618,3.59,2.723,8.91,9.157,12.129,13.983.246.372.371.619.371.99,0,.495-.248.866-.742,1.237l-5.941,4.455c-.371.371-.742.495-.99.495-.494,0-.865-.247-1.236-.866-3.342-5.073-8.416-11.509-13.117-15.345l7.424-5.197ZM3203.342,185.05c.371-.247.619-.371.867-.371.494,0,.865.248,1.484.743,3.959,3.217,9.281,9.157,11.879,13.241.371.371.496.866.496,1.237s-.125.742-.742,1.237l-5.816,4.578c-.371.248-.742.372-.99.372-.496,0-.867-.248-1.238-.743-3.094-4.949-8.043-11.137-12.992-15.345l7.053-4.95Z"/>
      <path class="cls-2" d="M3284.524,276.006h11.014c8.414,0,14.975,0,21.779-.494,1.857-.123,2.104.248,2.229,1.98.123,3.711.123,7.92,0,11.631-.125,1.857-.496,2.229-2.475,2.229-6.559-.123-13.49-.248-21.533-.248h-38.857c-8.291,0-14.479.125-20.418.371-1.857.125-2.352-.371-2.6-2.475-.246-3.713-.371-8.291-.494-13.488,7.92.494,14.973.619,23.264.619h10.768v-30.566h-8.416c-5.072,0-9.652.246-13.859.494-1.732.125-2.104-.248-2.227-2.352-.371-3.711-.496-8.91-.619-13.736,4.455.372,9.9.372,16.211.372h32.793c6.311,0,11.633-.124,16.83-.248,1.98-.124,2.352.248,2.352,1.98.123,3.588.123,7.921,0,11.386,0,2.104-.371,2.35-2.352,2.227-6.064-.123-11.014-.248-15.098-.248h-8.291v30.566Z"/>
      <path class="cls-2" d="M3384.514,243.832c-10.52,8.414-22.77,16.582-31.309,21.408-.865.496-1.609.742-2.352.742-1.236,0-2.352-.742-3.465-1.855-4.207-4.207-8.785-6.807-13.611-9.406,16.334-8.166,28.215-15.964,39.475-24.997,10.768-8.539,19.43-16.83,27.473-26.111,5.074-5.939,6.93-8.662,9.404-14.23,6.932,3.712,13.365,7.672,17.201,10.766.867.742,1.238,1.608,1.238,2.475,0,1.114-.742,2.352-1.98,3.094-2.352,1.238-4.207,2.6-8.291,6.931-4.207,4.826-9.281,10.023-14.107,14.726v39.972c0,10.023.248,20.047.496,29.205,0,2.104-.619,2.475-2.229,2.475-5.32.125-11.137.125-16.459,0-1.732,0-2.104-.494-1.979-2.352.246-9.775.494-18.189.494-28.709v-24.131Z"/>
    </g>
    <g>
      <path class="cls-2" d="M1907.674,414.027c8.787-2.723,19.182-6.682,27.596-10.889,6.188-3.094,11.014-6.188,14.604-10.023,5.197,4.33,9.9,9.652,13.117,13.488.742.742,1.113,1.607,1.113,2.475,0,1.113-.742,2.104-2.475,2.723-2.971.865-5.445,2.352-9.775,4.455-13.736,6.807-29.33,12.25-44.303,16.088v14.85c0,4.207.494,6.188,2.723,7.424,1.98.99,6.062,1.486,13.488,1.486,11.879,0,24.75-.99,37.99-3.219,2.723-.494,3.094,0,3.219,1.98.371,4.207.617,9.652.742,14.107,0,2.352-.619,2.723-2.846,2.971-14.107,1.855-25.988,2.475-40.467,2.475-12.498,0-20.418-1.486-25.492-4.455-6.064-3.59-8.043-9.9-8.043-21.285v-44.674c0-11.756-.371-18.934-1.238-25.367,8.168.742,14.975,1.607,20.047,2.969,1.732.371,2.475,1.113,2.475,2.229,0,.865-.371,1.855-.988,2.969-.99,1.98-1.486,4.951-1.486,10.52v16.705ZM1985.512,387.793c0,7.549-6.188,13.488-13.611,13.488-7.549,0-13.613-5.939-13.613-13.488,0-7.672,6.064-13.611,13.613-13.611,7.424,0,13.611,6.062,13.611,13.611ZM1965.342,387.793c0,3.59,2.846,6.559,6.559,6.559s6.434-2.969,6.434-6.559c0-3.713-2.721-6.559-6.434-6.559s-6.559,2.846-6.559,6.559Z"/>
      <path class="cls-2" d="M2019.67,436.426c-8.291,0-13.611.496-17.076.99-2.6.371-4.084.619-4.951.619-1.484,0-2.846-1.113-3.217-3.094-.99-4.949-1.855-12.498-2.104-18.934,8.785,1.361,14.973,1.609,28.586,1.609h40.342c11.385,0,19.676-.125,30.566-.371,1.732-.125,2.104.246,2.104,1.855.248,4.826.248,10.52,0,15.592,0,1.486-.494,1.98-2.104,1.98-10.643-.123-18.934-.248-29.205-.248h-42.941Z"/>
      <path class="cls-2" d="M2151.711,425.412c0,7.92-6.311,14.232-14.23,14.232s-14.232-6.312-14.232-14.232,6.312-14.23,14.232-14.23,14.23,6.311,14.23,14.23Z"/>
      <path class="cls-2" d="M2239.327,417.74c8.291-6.188,15.469-12.869,21.16-20.789l-51.355.123c-10.643,0-16.953.371-23.635.867-2.475.123-3.342-.371-3.59-1.857-.865-5.197-1.484-12.25-1.732-16.953,10.395.742,17.943.99,28.34.99h52.592c4.332,0,6.188-.123,7.674-.867,1.113-.494,2.227-.865,2.969-.865,1.113,0,2.6.99,3.836,2.104,3.342,2.846,6.312,6.188,9.9,10.395.742.99,1.113,1.857,1.113,2.723,0,1.113-.617,2.104-1.732,2.971-2.227,1.484-3.588,3.588-5.072,5.445-5.816,7.92-12.994,16.086-21.285,22.645-1.238,1.115-2.352,1.609-3.465,1.609s-2.352-.494-3.59-1.609c-3.217-2.598-7.424-4.701-12.127-6.434-.494,12.869-2.598,23.76-7.92,33.783-4.949,9.652-12.994,18.438-22.77,24.996-1.484.99-2.846,1.609-4.207,1.609-1.238,0-2.475-.494-3.713-1.609-3.465-2.846-8.539-5.939-14.107-7.92,12.746-6.682,21.16-13.859,26.605-23.76,5.197-9.404,6.436-17.572,6.436-29.451,0-4.951-.371-8.787-1.238-12.871,7.674.496,14.85,1.486,20.543,2.6,1.732.371,2.475,1.484,2.475,2.598,0,.744-.248,1.486-.742,2.229-1.238,1.732-1.361,3.094-1.361,6.064v1.236Z"/>
      <path class="cls-2" d="M2345.383,400.539c.865.867,1.361,1.486,1.361,2.229,0,.494-.371,1.113-.99,1.979-2.848,3.713-7.301,8.91-10.148,12.129-.742.742-1.236,1.236-1.855,1.236-.496,0-.99-.494-1.732-1.236-7.92-8.416-17.078-15.594-27.473-22.027,3.588-4.455,8.168-9.281,11.633-12.871.742-.742,1.236-1.113,1.98-1.113.494,0,1.113.248,1.979.742,8.291,4.58,18.068,12.004,25.246,18.934ZM2327.067,448.801c13.613-6.93,23.389-13.117,36.506-23.512,13.242-10.518,24.133-20.418,34.773-34.402.99,7.178,2.848,14.355,4.58,18.811.494,1.113.742,1.98.742,2.846,0,1.484-.742,2.846-2.475,4.826-7.178,8.168-17.449,17.201-27.721,24.998-12.375,9.404-24.502,17.201-38.486,24.996-5.691,3.342-8.291,4.951-10.023,6.436-.99.865-1.979,1.238-2.846,1.238-.742,0-1.484-.248-2.104-.99-4.455-5.693-8.662-11.51-12.252-17.572,6.807-1.98,11.881-3.838,19.305-7.674Z"/>
      <path class="cls-2" d="M2453.788,407.717c13.488,4.207,26.854,9.281,39.725,16.953,1.484.867,2.104,1.486,2.104,2.352,0,.496-.125.99-.371,1.609-1.98,4.578-4.951,10.766-7.426,14.85-.619.99-.99,1.484-1.609,1.484-.371,0-.988-.246-1.732-.742-11.879-7.92-21.902-12.869-30.812-15.84v24.75c0,9.033.123,15.963.371,25.615.248,1.98-.371,2.352-2.227,2.352-4.951.371-10.148.371-15.223,0-2.227,0-2.723-.371-2.723-2.227.248-10.891.496-18.314.496-25.988v-61.75c0-11.262-.371-16.211-1.113-20.914,7.301.248,14.23.867,19.799,2.104,1.855.496,2.6,1.361,2.6,2.6,0,.865-.371,1.98-.867,3.217-.619,1.361-.99,4.207-.99,10.52v19.057ZM2481.754,376.285c.373-.248.619-.371.867-.371.371,0,.742.246,1.238.617,3.588,2.723,8.908,9.158,12.127,13.984.248.371.371.619.371.99,0,.494-.248.865-.742,1.238l-5.941,4.455c-.371.371-.742.494-.988.494-.496,0-.867-.248-1.238-.867-3.342-5.072-8.414-11.508-13.117-15.344l7.424-5.197ZM2493.387,367.623c.371-.248.619-.371.867-.371.494,0,.865.246,1.484.742,3.961,3.217,9.281,9.156,11.881,13.24.371.371.494.867.494,1.238s-.123.742-.742,1.236l-5.816,4.58c-.371.246-.742.371-.99.371-.494,0-.865-.248-1.236-.742-3.094-4.951-8.045-11.139-12.994-15.346l7.053-4.949Z"/>
      <path class="cls-2" d="M2560.461,425.412c0,7.92-6.311,14.232-14.23,14.232s-14.232-6.312-14.232-14.232,6.312-14.23,14.232-14.23,14.23,6.311,14.23,14.23Z"/>
      <path class="cls-2" d="M2648.077,417.74c8.291-6.188,15.469-12.869,21.16-20.789l-51.355.123c-10.643,0-16.953.371-23.635.867-2.475.123-3.342-.371-3.59-1.857-.865-5.197-1.484-12.25-1.732-16.953,10.395.742,17.943.99,28.34.99h52.592c4.332,0,6.188-.123,7.674-.867,1.113-.494,2.227-.865,2.969-.865,1.113,0,2.6.99,3.836,2.104,3.342,2.846,6.312,6.188,9.9,10.395.742.99,1.113,1.857,1.113,2.723,0,1.113-.617,2.104-1.732,2.971-2.227,1.484-3.588,3.588-5.072,5.445-5.816,7.92-12.994,16.086-21.285,22.645-1.238,1.115-2.352,1.609-3.465,1.609s-2.352-.494-3.59-1.609c-3.217-2.598-7.424-4.701-12.127-6.434-.494,12.869-2.598,23.76-7.92,33.783-4.949,9.652-12.994,18.438-22.77,24.996-1.484.99-2.846,1.609-4.207,1.609-1.238,0-2.475-.494-3.713-1.609-3.465-2.846-8.539-5.939-14.107-7.92,12.746-6.682,21.16-13.859,26.605-23.76,5.197-9.404,6.436-17.572,6.436-29.451,0-4.951-.371-8.787-1.238-12.871,7.674.496,14.85,1.486,20.543,2.6,1.732.371,2.475,1.484,2.475,2.598,0,.744-.248,1.486-.742,2.229-1.238,1.732-1.361,3.094-1.361,6.064v1.236Z"/>
      <path class="cls-2" d="M2754.01,424.547c-10.52,8.414-22.77,16.582-31.309,21.408-.865.496-1.609.742-2.352.742-1.236,0-2.352-.742-3.465-1.855-4.207-4.207-8.785-6.807-13.611-9.404,16.334-8.168,28.215-15.965,39.475-24.998,10.768-8.539,19.43-16.83,27.473-26.111,5.074-5.939,6.93-8.662,9.404-14.23,6.932,3.713,13.365,7.672,17.201,10.766.867.742,1.238,1.609,1.238,2.475,0,1.113-.742,2.352-1.98,3.094-2.352,1.238-4.207,2.6-8.291,6.93-4.207,4.826-9.281,10.023-14.107,14.727v39.971c0,10.023.248,20.047.496,29.205,0,2.104-.619,2.475-2.229,2.475-5.32.125-11.137.125-16.459,0-1.732,0-2.104-.494-1.979-2.352.246-9.775.494-18.189.494-28.709v-24.131Z"/>
      <path class="cls-2" d="M2858.827,402.025c3.711-6.561,6.062-13.119,7.92-20.295.742-2.6,1.236-5.57,1.484-8.787,5.32,1.113,9.033,1.98,13.24,3.342,1.609.619,2.723,1.113,2.723,2.104s-.123,1.609-.742,2.475c-.619.867-1.113,2.229-2.104,5.445-.123.619-.371,1.236-.619,1.855h6.312v-.371c0-8.785-.248-13.365-1.115-20.047,5.941.123,11.385.371,17.201.99,1.486.123,2.475.865,2.475,1.609,0,1.113-.494,1.979-.865,2.846-.742,1.607-.867,4.455-.867,14.23v.742h6.807c10.643,0,14.232-.246,14.975-.246,1.607,0,1.732.123,1.732,1.732v12.127c0,1.607-.125,1.732-1.732,1.732-.742,0-4.332-.248-14.975-.248h-6.807v13.365h10.148c11.508,0,15.592-.248,16.459-.248,1.607,0,1.732.125,1.732,1.732v12.375c0,1.609-.125,1.732-1.732,1.732-.867,0-4.951-.248-16.459-.248h-4.826c6.188,10.025,15.717,18.811,25.986,25.74-2.35,3.094-4.826,7.92-6.805,12.994-.867,2.227-1.486,3.342-2.352,3.342-.742,0-1.732-.742-3.219-2.229-7.672-7.549-14.354-15.592-19.428-24.873.248,16.334.865,31.928.865,34.773,0,1.609-.123,1.732-1.732,1.732h-14.107c-1.607,0-1.732-.123-1.732-1.732,0-2.846.619-18.191.867-34.279-5.32,9.652-12.375,17.82-21.533,25.246-1.732,1.484-2.721,2.227-3.588,2.227-.99,0-1.732-1.236-2.846-3.588-1.98-3.961-4.58-7.549-7.055-10.023,10.891-7.178,21.162-16.83,28.463-29.33h-1.238c-11.631,0-15.715.248-16.582.248-.619,0-.99,0-1.236-.123-1.115,2.227-2.229,4.578-2.971,6.682-.619,1.609-1.113,2.475-1.732,2.475s-1.361-.988-2.352-2.721c-1.732-3.467-3.465-7.178-4.826-10.891.123,28.834.867,51.85.867,54.326,0,1.607-.125,1.732-1.732,1.732h-13.613c-1.609,0-1.732-.125-1.732-1.732,0-2.477.742-23.389.867-48.262-2.477,7.424-5.693,14.479-9.529,20.789-.867,1.609-1.609,2.475-2.229,2.475s-1.113-.865-1.732-2.723c-1.484-4.826-3.711-10.023-5.443-13.24,7.547-9.406,13.734-21.533,17.818-35.516h-1.607c-8.168,0-10.768.246-11.633.246-1.609,0-1.732-.123-1.732-1.607v-12.5c0-1.607.123-1.732,1.732-1.732.865,0,3.465.248,11.633.248h2.475v-3.713c0-8.166-.125-12.498-1.113-18.934,5.939.125,11.014.371,16.211.99,1.484.123,2.475.742,2.475,1.609,0,1.236-.371,1.98-.742,2.846-.742,1.609-.99,3.465-.99,13.242v3.959c4.578-.123,6.188-.248,6.807-.248,1.607,0,1.732.125,1.732,1.732v10.396ZM2875.284,403.262c-1.113,2.6-2.35,5.197-3.588,7.672-1.113,2.229-1.732,3.342-2.723,3.342-.742,0-1.732-.742-3.588-2.227-2.848-2.352-5.816-4.084-9.406-5.322.248-.371.496-.619.619-.99-1.855,0-3.713-.123-5.568-.246,2.6,6.434,6.311,12.621,10.52,18.189v-5.568c0-1.607.123-1.732,1.607-1.732.867,0,4.951.248,16.582.248h7.303v-13.365h-11.758Z"/>
      <path class="cls-2" d="M2966.489,406.479c-10.766,0-14.479.248-15.221.248-1.609,0-1.732-.123-1.732-1.855v-13.365c0-1.609.123-1.732,1.732-1.732.742,0,4.455.248,15.221.248h45.045v-1.732c0-8.787-.125-12.746-.99-20.049,5.939.125,12.127.371,17.943.99,1.484.125,2.352.867,2.352,1.732,0,1.115-.496,1.98-.867,2.848-.742,1.732-.742,4.455-.742,14.107v2.104h14.479c10.766,0,14.479-.248,15.221-.248,1.609,0,1.732.123,1.732,1.732v13.365c0,1.732-.123,1.855-1.732,1.855-.742,0-4.455-.248-15.221-.248h-13.982c.988,15.594,3.094,27.721,6.311,38.24,3.342,10.889,6.682,16.582,9.281,16.582,2.352,0,3.465-5.074,4.33-15.965,2.352,2.352,6.436,5.197,9.652,6.93,4.826,2.6,4.826,2.723,3.961,7.549-2.971,16.955-8.91,23.143-16.582,23.143-10.271-.125-20.047-10.271-26.482-29.576-4.084-12.252-6.807-28.463-7.92-46.902h-45.787ZM2990,454.617c7.301-1.732,14.85-3.713,22.027-5.816-.371,2.848-.494,7.055-.371,10.891.123,4.949-.123,5.197-4.949,6.682-12.5,3.713-28.586,7.92-42.57,10.643-3.342.619-4.826,1.238-5.568,1.732-1.113.742-1.732.99-2.6.99-.99,0-1.607-.494-1.979-1.855-1.238-3.961-2.848-11.139-3.961-16.83,4.207-.123,8.043-.494,12.252-1.113,3.217-.496,6.559-.99,10.146-1.732v-23.637h-2.352c-10.27,0-13.736.248-14.602.248-1.484,0-1.609-.125-1.609-1.732v-12.623c0-1.609.125-1.732,1.609-1.732.865,0,4.332.248,14.602.248h22.523c10.271,0,13.736-.248,14.479-.248,1.607,0,1.732.123,1.732,1.732v12.623c0,1.607-.125,1.732-1.732,1.732-.742,0-4.207-.248-14.479-.248h-2.6v20.047ZM3043.707,369.602c1.609-.742,1.98-.617,3.094.619,2.971,3.217,6.064,7.549,8.416,11.633.742,1.484.494,1.98-1.115,2.723l-9.281,4.207c-1.607.867-2.104.742-2.846-.865-2.227-4.58-5.197-9.035-7.92-12.375-.99-1.238-.742-1.609.742-2.352l8.91-3.59Z"/>
      <path class="cls-2" d="M3158.795,418.236c0,1.607-.123,1.732-1.732,1.732-.742,0-3.959-.248-13.613-.248h-17.818c-9.529,0-12.746.248-13.488.248-1.609,0-1.732-.125-1.732-1.732v-8.416c-6.561,4.703-13.613,8.787-21.039,12.375-1.855.867-2.969,1.484-3.711,1.484-1.238,0-1.609-1.236-2.848-4.207-1.979-4.455-4.578-8.662-7.424-12.004,21.16-8.043,36.135-19.305,45.787-32.545,2.475-3.342,3.959-5.816,5.32-9.158,6.559.867,12.871,1.98,18.314,3.465,1.609.496,2.6,1.115,2.6,2.104,0,.867-.371,1.857-1.484,2.477-.619.246-1.115.617-1.609.988,12.994,14.852,30.07,25.492,50.119,31.805-2.848,3.959-5.074,8.168-6.807,12.994-1.113,2.969-1.486,4.082-2.723,4.082-.742,0-1.857-.494-3.59-1.236-7.92-3.59-15.467-7.797-22.521-12.623v8.416ZM3172.161,483.451c-.742.371-1.113.619-1.484.619-.373,0-.744-.371-1.238-1.113-1.855-3.219-3.588-6.064-5.322-8.787-20.789,2.6-43.682,4.703-66.824,6.064-1.607.123-3.217.617-4.082,1.113-.867.494-1.732.865-2.723.865-1.115,0-1.732-.742-2.229-2.723-1.236-4.701-2.227-10.395-3.094-16.334,5.074.371,8.91.371,13.613.248l2.846-.125c3.342-6.434,6.436-12.992,9.281-19.799h-11.508c-11.139,0-15.098.248-15.84.248-1.609,0-1.732-.125-1.732-1.732v-12.994c0-1.609.123-1.732,1.732-1.732.742,0,4.701.248,15.84.248h70.66c11.26,0,15.098-.248,15.963-.248,1.609,0,1.732.123,1.732,1.732v12.994c0,1.607-.123,1.732-1.732,1.732-.865,0-4.703-.248-15.963-.248h-8.91c.371.123.742.494,1.236.99,8.045,8.414,15.469,17.695,22.523,28.709.865,1.238.742,1.857-.619,2.723l-12.127,7.549ZM3143.45,404.5c3.467,0,6.064,0,8.045-.125-6.311-4.949-12.127-10.518-17.201-16.705-5.074,6.062-10.766,11.633-16.83,16.705,1.98.125,4.703.125,8.168.125h17.818ZM3130.952,443.48c-2.846,6.436-5.939,12.746-9.156,18.934,10.766-.496,21.654-1.113,32.422-2.229-2.229-2.721-4.58-5.443-7.055-8.166-.494-.496-.742-.867-.742-1.238,0-.494.496-.865,1.361-1.236l11.385-5.57c.496-.246.867-.371,1.238-.494h-29.453Z"/>
      <path class="cls-2" d="M3241.707,467.982c0,8.662.248,13.365.248,14.107,0,1.609-.123,1.732-1.732,1.732h-13.736c-1.607,0-1.732-.123-1.732-1.732,0-.865.248-5.445.248-14.107v-25.74c-2.723,2.6-5.445,4.951-8.168,7.055-1.484,1.236-2.475,1.98-3.217,1.98-.99,0-1.609-1.238-2.352-3.838-1.484-4.949-3.713-9.404-5.691-12.375,12.621-7.92,23.387-19.551,29.203-32.422h-10.643c-9.652,0-12.746.248-13.611.248-1.484,0-1.609-.123-1.609-1.732v-12.498c0-1.609.125-1.732,1.609-1.732.865,0,3.959.246,13.611.246h.867v-3.34c0-6.559-.123-10.768-.99-16.459,5.939.123,11.137.494,16.953.99,1.486.123,2.352.99,2.352,1.732,0,1.113-.248,1.855-.742,2.723-.867,1.607-.867,3.711-.867,10.146v4.207h2.229c1.238,0,2.227-.246,2.971-.617.494-.248,1.361-.619,1.732-.619.865,0,2.35.865,5.691,4.084,3.094,2.969,4.332,4.578,4.332,5.816,0,.617-.248,1.361-1.361,2.35-1.486,1.486-2.846,3.219-4.332,6.312-2.227,4.826-5.074,9.775-8.291,14.479,4.578,5.197,10.643,9.775,17.82,13.982-2.352,2.723-4.826,6.807-6.684,11.139-1.113,2.475-1.732,3.711-2.721,3.711-.867,0-1.857-.617-3.342-1.979-2.971-2.723-5.693-5.445-8.045-8.291v30.441ZM3296.53,463.65h8.291c11.508,0,15.592-.246,16.334-.246,1.609,0,1.732.123,1.732,1.607v13.613c0,1.484-.123,1.609-1.732,1.609-.742,0-4.826-.248-16.334-.248h-34.898c-11.631,0-15.592.248-16.457.248-1.486,0-1.609-.125-1.609-1.609v-13.613c0-1.484.123-1.607,1.609-1.607.865,0,4.826.246,16.457.246h8.787v-43.559h-3.713c-10.889,0-14.727.248-15.469.248-1.607,0-1.732-.125-1.732-1.732v-13.242c0-1.607.125-1.732,1.732-1.732.742,0,4.58.248,15.469.248h3.713v-15.469c0-8.91-.248-13.736-1.113-20.418,6.062.123,12.375.371,18.191.99,1.484.123,2.475.988,2.475,1.732,0,1.113-.248,1.855-.742,2.721-.867,1.609-.99,4.703-.99,14.604v15.84h5.568c10.889,0,14.727-.248,15.469-.248,1.607,0,1.732.125,1.732,1.732v13.242c0,1.607-.125,1.732-1.732,1.732-.742,0-4.58-.248-15.469-.248h-5.568v43.559Z"/>
    </g>
    <line class="cls-1" x1="1804.313" y1="242.575" x2="1498.646" y2="242.575"/>
    <polyline class="cls-1" points="1804.313 419.499 1629.904 419.499 1629.904 70.665 1804.313 70.665"/>
  </g>
</svg>