<?xml version="1.0" encoding="UTF-8"?>
<svg id="_レイヤー_1" data-name="レイヤー 1" xmlns="http://www.w3.org/2000/svg" width="2263.944" height="1049.648" viewBox="0 0 2263.944 1049.648">
  <defs>
    <style>
      .cls-1 {
        fill: none;
      }

      .cls-1, .cls-2 {
        stroke-width: 0px;
      }

      .cls-2 {
        fill: #fff;
      }
    </style>
  </defs>
  <path class="cls-2" d="M224.692,38.847c-4.217,0-8.09,2.574-9.665,6.646l-40.709,105.17c-15.103,36.447-29.892,75.233-45.548,116.297C90.163,368.217,50.241,472.921,1.532,552.413c-1.002,1.636-1.532,3.516-1.532,5.433v6.804c0,3.63,1.932,7.043,5.042,8.909l8.506,5.106c3.3,1.975,7.633,1.931,10.876-.111,18.202-11.435,27.083-36.946,34.92-59.455,2.767-7.953,5.382-15.466,8.15-21.625,22.963-51.001,43.591-102.836,63.064-158.465l22.236-51.437,64.994,42.822,232.925,139.414c4.093,2.454,9.313,1.808,12.688-1.569l6.804-6.804c4.021-4.021,4.1-10.396.179-14.514h-.001c-16.913-17.773-39.952-29.416-62.232-40.674-11.322-5.723-21.904-11.074-31.677-17.128-66.026-40.909-118.906-74.906-166.418-106.989l-42.898-28.595.278-1.882c.869-5.848,4.896-16.881,12.315-33.728,1.417-3.214,2.66-6.047,3.567-8.276,9.797-24.126,20.76-49.361,31.364-73.765,10.592-24.382,21.546-49.594,31.569-74.209,1.128-2.773,1.006-5.897-.331-8.571l-3.404-6.807c-1.444-2.886-4.088-4.904-7.252-5.537l-8.5-1.702c-.694-.139-1.387-.208-2.071-.208Z"/>
  <g>
    <path class="cls-2" d="M893.701,75.796c-2.394,0-4.696,1.223-6.009,3.368-.388.633-.697,1.093-.949,1.469-1.932,2.884-2.331,4.241-3.352,9.325-.429,2.133.171,4.387,1.607,6.028l9.668,11.052-.349,1.497c-3.486,14.988-11.43,28.512-19.113,41.588-4.797,8.169-9.734,16.576-13.477,25.157-19.778,45.347-60.151,132.475-108.312,206.496-.964,1.482-1.334,3.259-1.044,5.005l1.701,10.195c.494,2.974,2.82,5.303,5.791,5.796l10.206,1.704c3.045.502,6.019-1.021,7.414-3.708l139.919-269.839,2.889,3.454c34.635,41.38,107.44,69.25,171.677,93.839,23.625,9.044,45.938,17.585,64.131,26.005,1.983.92,4.321.858,6.246-.163,1.934-1.018,3.305-2.914,3.665-5.071l1.699-10.204c.469-2.81-.785-5.606-3.196-7.124h0c-26.145-16.46-59.514-28.84-91.784-40.812-60.762-22.541-123.586-45.847-143.546-96.971-.211-.535-.483-1.044-.814-1.51-5.247-7.403-15.536-10.674-24.615-13.559l-.318-.101c-2.555-.812-4.967-1.578-7.176-2.439-.836-.325-1.702-.48-2.556-.48Z"/>
    <path class="cls-2" d="M860.439,430.02l-26.495,15.896c-2.111,1.266-3.422,3.582-3.422,6.042v8.505c0,2.361,1.172,4.551,3.135,5.859l10.21,6.807c2.322,1.547,5.486,1.548,7.799.007,70.147-46.542,150.488-80.965,233.518-115.021,2.273-.932,3.873-2.936,4.277-5.358l1.702-10.203c.372-2.24-.363-4.537-1.969-6.145l-5.098-5.099c-1.541-1.541-3.647-2.269-5.818-2.016-28.869,3.451-53.203,16.515-76.734,29.149-15.354,8.246-29.804,16.003-45.284,21.281l-4.043,1.38.076-4.273c.237-13.018-2.06-28.125-4.289-37.922l-.396-1.745,1.348-1.178c3.302-2.89,6.554-5.978,9.999-9.248,14.95-14.197,30.313-28.789,52.292-29.333,2.818-.072,5.317-1.811,6.366-4.431l3.398-8.502c1.14-2.84.322-6.064-2.03-8.026l-10.21-8.509c-1.512-1.261-3.486-1.835-5.405-1.575-17.944,2.342-30.012,11.771-40.661,20.09-4.822,3.766-9.299,7.261-14.174,10.151l-3.812,2.259-.683-4.377c-2.317-14.867-1.104-33.573-.032-50.077.709-10.931,1.374-21.208.955-29.257-.144-2.799-1.937-5.246-4.562-6.231l-13.611-5.102c-1.951-.734-4.119-.562-5.93.458-1.816,1.025-3.079,2.791-3.466,4.841-6.419,34.244-2.953,138.948,11.61,177.737l.949,2.53-26.653,13.326-1.522-1.815c-6.362-7.582-10.57-22.022-14.641-35.988-6.804-23.329-14.515-49.771-36.246-54.23-2.147-.444-4.337.123-6.009,1.56-1.641,1.411-2.553,3.545-2.442,5.706,1.8,34.756,16.708,62.673,29.862,87.303l6.577,12.317-18.439,12.455Z"/>
  </g>
  <path class="cls-2" d="M2222.237,614.86c-7.586,3.199-12.25,11.058-13.608,18.711-1.358,7.653,3.84,29.828,20.412,35.721,12.809,3.968,29.654-11.553,34.02-22.113,7.339-18.866-33.238-35.517-40.824-32.319ZM2227.34,655.684c-6.744-3.8-5.844-15.499,1.701-20.412,7.545-4.913,10.164-2.256,15.531-.295,1.134.567,4.175,3.168,2.993,11.663s-13.481,12.843-20.225,9.044Z"/>
  <g>
    <path class="cls-2" d="M1148.946,57.663l-1.699,10.208c-.413,2.49.545,5.027,2.505,6.621,15.92,12.957,36.108,26.508,65.127,28.775,1.852.148,3.645-.437,5.042-1.595l1.269-1.036c4.667-3.775,5.833-5.669,7.822-12.675.533-1.872.261-3.901-.744-5.565-1.002-1.666-2.672-2.851-4.579-3.252-12.179-2.569-22.582-8.237-32.643-13.717l-34.157-13.581c-3.771-.532-7.315,2.07-7.942,5.815Z"/>
    <path class="cls-2" d="M1426.443,331.702c-.571-1.986-1.978-3.615-3.858-4.471l-36.981-16.9c-6.105-4.764-11.048-10.352-16.277-16.267-6.003-6.79-12.105-13.696-20.194-19.493l-4.128-2.958,4.582-2.188c3.888-1.857,8.156-3.706,11.921-5.335,25.248-10.935,42.864-20.026,39.574-37.494-.448-2.379-2.06-4.336-4.31-5.237l-8.502-3.398c-2.206-.882-4.688-.599-6.639.756-9.785,6.794-19.441,11.568-29.663,16.622-7.271,3.593-14.789,7.308-22.374,11.839l-4.723,2.821.188-5.498c.193-5.742.437-11.344.627-15.303l.082-1.668,1.462-.81c2.698-1.497,6.012-3.133,9.847-5.026,10.582-5.225,23.751-11.729,32.745-19.63l.85-.628c.507-.472,1.324-1.301,1.86-1.847,2.183-2.219,2.795-2.812,3.797-3.104,4.526-1.314,7.564-6.437,9.029-15.226.536-3.214-1.181-6.354-4.175-7.636l-7.544-2.826c-1.597-.681-7.992,1.295-10.972,3.289-4.752,3.17-14.019,7.941-22.98,12.557-2.877,1.478-5.593,2.875-8.194,4.235l-4.441,2.317.053-5.01c.064-6.069-.202-17.268-.876-22.509l-.229-1.789,1.474-1.042c1.345-.952,9.174-6.814,13.551-11.609,5.912-6.473,10.88-11.013,14.12-13.596l6.076-4.846-2.196,8.131c-.401,2.464-1.688,5.514-2.971,8.738-1.201,3.022-3.283,8.84-2.272,10.136,1.632.535,6.437-1.866,8.834-3.23,13.553-7.66,17.751-14.276,24.967-39.335.803-2.793-.223-5.843-2.549-7.586l-6.803-5.098c-.595-.45-1.248-.795-1.948-1.033-11.106-3.792-25.658,3.94-35.646,10.08l-9.126,5.613,4.887-9.536c6.598-12.885,14.628-24.835,22.028-32.786l.732-.787,1.063-.144c2.771-.372,7.33-.274,10.655-.202,10.169.209,22.726.463,29.358-7.55,3.829-4.627,4.919-10.998,3.234-18.933-.598-2.812-2.812-4.961-5.64-5.473-4.521-.814-11.52-.614-19.699.568l-6.085.88,3.05-5.338,2.52.904-.009-.073-2.271-1.263.483-.866c4.26-7.66,8.288-14.893,10.992-19.496,1.611-2.741,1.181-6.237-1.049-8.505-.932-.952-1.635-1.767-2.247-2.476-3.762-4.373-6.296-6.416-15.123-8.023-3.108-.565-6.211,1.018-7.594,3.838-7.318,14.972-21.847,36.164-37.811,49.748l-4.945,4.207v-30.451c0-2.459-1.312-4.774-3.422-6.041l-8.499-5.101c-2.071-1.248-4.605-1.343-6.788-.259l-3.404,1.705c-2.203,1.104-3.645,3.234-3.858,5.695l-4.767,55.597-13.529,6.766-.747-3.889c-3.17-16.523-6.425-35.174-4.881-47.375.305-2.399-.624-4.753-2.481-6.3l-10.204-8.502c-2.766-2.31-6.817-2.159-9.425.362-12.17,11.823-6.812,38.725.858,70.061.516,2.105,1.008,4.106,1.447,5.966l.439,1.854-1.488,1.187c-9.779,7.778-20.792,14.174-32.452,20.946-8.341,4.841-16.969,9.845-25.195,15.485-2.273,1.557-3.434,4.312-2.956,7.022q1.711,9.797,7.204,12.686l3.387,1.813c2.312,1.266,5.109,1.144,7.304-.315l39.466-26.764,1.025,4.188c.044.174.384,2.007.709,3.781.267,1.465.527,2.886.583,3.151,2.312,9.354,4.318,17.473,7.86,25.447l1.14,2.565-25.896,13.63c-2.323,1.222-3.765,3.611-3.765,6.234v6.804c0,2.37,1.181,4.566,3.158,5.875,19.775,13.078,41.927-3.552,58.107-15.691,1.491-1.122,2.979-2.237,4.441-3.311l4.629-3.404.208,7.821c.188,5.78.369,11.512.56,16.292l.067,1.671-1.389.935c-10.72,7.228-21.955,12.943-33.85,18.993-13.465,6.855-27.308,13.9-40.207,23.281-2.218,1.614-3.305,4.393-2.766,7.083l1.702,8.506c.425,2.114,1.828,3.952,3.759,4.916l10.21,5.104c2.408,1.201,5.338.914,7.471-.737,8.643-6.7,18.53-11.577,29.001-16.739,6.773-3.341,13.635-6.725,20.842-10.888l4.714-2.72-.217,5.438c-.229,5.771-.442,11.5-.589,15.526l-.059,1.639-1.409.833c-14.306,8.468-62.224,37.475-78.205,55.239-2.218,2.464-2.429,6.073-.513,8.779,4.632,6.551,7.658,9.746,17.177,12.839,2.171.71,4.564.316,6.398-1.055,5.317-3.971,16.415-11.962,32.988-23.747l8.827-6.278-4.342,9.926c-13.846,31.66-28.474,67.414-31.998,92.546-.261,1.853.217,3.7,1.339,5.203l5.098,6.801c1.321,1.768,3.431,2.823,5.64,2.823h8.508c3.1,0,5.877-2.074,6.753-5.043,6.557-22.126,17.147-48.032,24.876-65.87l4.081-9.415,1.635,10.129c1.942,12.044,4.143,24.631,6.085,35.736,4.438,25.459,8.979,51.513,11.215,72.744.255,2.414,1.705,4.499,3.882,5.575,1.863.923,3.773,1.371,5.848,1.371,2.534,0,4.857-.678,6.724-1.223,1.975-.576,3.996-1.179,6.439-1.077,3.416.127,6.431-2.106,7.213-5.408,3.34-14.073-1.969-35.585-6.653-54.565-1.661-6.734-3.202-12.984-3.993-17.613-5.01-29.21-8.786-60.198-11.229-92.104l-.56-7.315,5.525,4.828c3.706,3.237,7.336,6.655,10.846,9.959,17.678,16.623,37.714,35.467,72.521,35.729,2.417,0,4.608-1.17,5.915-3.132l3.413-5.123c1.137-1.717,1.468-3.845.899-5.837ZM1307.395,136.608s-27.043,17.625-33.029,20.643c-8.377-10.605-10.22-18.433-9.496-37.983,19.276-11.905,35.286-24.433,54.562-36.339-6.361,13.841-12.037,53.679-12.037,53.679Z"/>
  </g>
  <path class="cls-2" d="M1719.86,604.262l-8.112,12.74c-5.692,8.936-11.156,17.467-16.479,25.775l-.211.331c-26.385,41.209-49.172,76.799-78.129,127.956-10.474,16.673-42.744,69.12-46.151,76.248-4.14,8.646-6.032,24.686,3.047,31.655,9.366,7.831,17.977,11.288,28.014,11.288,3.677,0,7.573-.451,11.915-1.377,1.213-.264,2.344-.844,3.264-1.682,19.318-17.572,44.971-71.997,47.833-78.144,3.65-6.606,35.317-64.055,52.474-104.571l1.248-2.947,2.862,1.437c7.163,3.599,18.773,10.299,29.016,16.211,42.161,24.338,105.65,60.986,145.705,60.983.246,0,.527-.006.794-.023l.275-.018.275.035c6.003.724,11.054-1.43,13.866-5.918,3.647-5.833,2.675-14.728-2.423-22.131h0c-17.027-24.659-52.45-38.717-86.71-52.311-27.308-10.838-55.547-22.044-73.38-38.178l-1.77-1.601,1.16-2.083c2.024-3.634,3.935-7.542,5.619-10.991,3.735-7.639,13.184-22.172,13.184-22.172,0,0,39.832-56.953,48.598-63.839,1.688-1.324,2.669-3.312,2.695-5.454.255-20.634-17.9-37.588-42.229-39.434-1.395-.108-2.733.193-3.94.858-29.139,16.083-56.757,33.995-83.47,51.318-29.3,19.002-56.968,36.943-86.83,52.97-2.007,1.08-3.372,3.072-3.653,5.331-.328,2.609-.557,6.747-.762,10.4-.214,3.773-.425,7.456-.674,9.445-.032.283-.056.579-.056.877v6.804c0,2.216,1.061,4.329,2.839,5.651,10.163,7.564,26.051,16.377,46.582,5.703.352-.183.68-.394.996-.63,8.865-6.687,17.464-14.682,26.572-23.147,10.849-10.078,22.002-20.436,33.779-28.696l12.366-8.672Z"/>
  <g>
    <path class="cls-2" d="M1376.246,603.851c-1.072,0-2.13.245-3.103.722-15.495,7.613-33.855,19.037-53.294,31.131-28.075,17.461-57.079,35.502-74.552,39.792-2.388.586-4.324,2.408-5.051,4.758-.727,2.345,3.302,14.763,3.12,16.729-.284,3.015,1.38,5.865,4.14,7.099,8.423,3.756,16.84,5.581,25.734,5.581,26.174-.003,51.448-16.312,75.891-32.086,19.453-12.554,39.568-25.535,59.021-29.134,3.771-.696,6.311-4.339,5.663-8.121-1.189-6.911-4.244-10.648-6.328-14.328-6.698-11.826-18.914-18.872-18.914-18.872l-1.371-.645c-2.546-1.197-5.643-1.988-10.037-2.565-.308-.041-.615-.062-.92-.062Z"/>
    <path class="cls-2" d="M1418.222,726.29l-4.318,7.764c-24.794,44.558-103.438,158.291-119.695,178.623-1.468,1.831-1.922,4.26-1.225,6.501l.51,1.635c3.062,9.861,5.704,18.372,14.985,22.983,5.578,2.769,13.682,4.424,21.677,4.424,5.575,0,10.91-.773,15.855-2.3,1.611-.495,2.991-1.556,3.891-2.988l54.375-86.657c14.221-22.137,29.101-43.412,43.491-63.984,24.381-34.872,49.55-70.869,70.761-109.995,1.037-1.915,1.137-4.16.267-6.164h0c-.642-1.488-1.257-2.975-1.863-4.453-4.89-11.89-10.433-25.362-30.138-30.199-1.518-.372-3.149-.226-4.573.417-99.123,44.669-263.845,156.529-269.807,163.803-4.781,6.366-2.051,14.062-.059,19.682l.715,2.054c.507,1.503,1.45,2.745,2.736,3.618,7.011,4.758,28.345,19.248,45.146,8.628,2.502-1.585,7.456-5.856,17.531-14.599,28.477-24.694,87.732-76.084,131.596-95.235l8.142-3.557Z"/>
  </g>
  <path class="cls-2" d="M1205.805,551.063c-7.307-10.956-39.097-32.287-59.774-32.287-.428,0-.85.009-1.269.028-18.085.715-36.697,7.373-49.802,17.811-12.879,10.255-40.896,67.428-41.73,106.913-.352,16.638,3.92,28.935,12.697,36.551,15.419,13.383,30.645,20.168,45.252,20.168,26.388-.004,46.286-21.309,60.817-36.866,5.452-5.845,10.163-10.893,14.145-13.688.586-.413.961-.86,1.216-1.449.665-1.282,2.186-3.161,5.607-7.244,7.603-9.082,18.996-22.689,23.502-37.479.07-.221.114-.428.138-.636,1.931-16.075-3.114-40.291-10.799-51.823ZM1149.16,640.369c-11.374,14.203-26.979,27.409-40.384,27.409-2.824,0-5.551-.586-8.126-1.878-7.198-3.613-11.859-8.993-13.838-16.002-4.683-16.538,7.78-36.688,13.104-45.294.494-.96,1.292-2.57,2.173-4.351,3.705-7.461,8.776-17.682,15.518-25.157,6.834-7.567,23.819-22.508,31.935-24.086,5.353-1.048,8.707.697,10.488,1.763l2.169-.152,2.201,2.69c18.448,22.573,5.639,58.989-15.241,85.059Z"/>
  <path class="cls-2" d="M1006.214,738.972l.712.337c1.878.891,2.558,2.839,3.091,4.761l.149.533.012.762c-4.008,43.409-58.169,133.017-87.267,181.157-4.187,6.926-7.898,13.066-10.975,18.258-2.136,3.598-6.772,10.444-12.141,18.372-27.227,40.198-35.229,54.36-34.258,60.624.031.202.078.398.141.589,5.508,16.775,16.865,25.283,33.751,25.283h.009c1.551,0,3.158-.073,4.775-.22.71-.062,1.38-.325,1.939-.759.835-.562,2.448-1.55,4.14-2.581l.463-.284c1.752-1.072,3.015-1.846,3.946-2.438l.492-.255c.642-.258,1.201-.7,1.614-1.277,5.42-7.594,52.626-73.934,73.377-108.694,13.772-23.065,45.217-94.881,64.131-143.684,1.635-4.222,3.39-8.344,4.939-11.979,2.979-7.005,5.792-13.623,7.661-20.215l.199-.519c4.207-8.455,5.613-18.574,6.694-28.213.24-2.136.103-6.916-.085-12.48l-.018-.476c-.053-1.56-.097-2.883-.103-3.683-.006-.655-.19-1.305-.53-1.872-6.193-10.291-10.951-13.644-22.107-18.495-.349-.151-.724-.248-1.113-.287l-17.001-1.699c-.272-.025-.545-.025-.826.007-38.212,4.616-66.36,12.158-100.383,26.9-58.477,24.773-162.185,83.903-199.14,132.182-.895,1.172-1.011,2.757-.296,4.043.587,1.058.858,2.654,1.277,6.064.687,5.578,1.54,12.501,7.409,17.581,7.966,6.899,19.087,8.95,32.169,5.909.497-.114.952-.322,1.355-.621,5.496-4.046,10.849-9.375,16.852-16.772l.398-.407c20.076-16.89,58.159-47.771,87.649-64.849,10.541-6.103,20.351-12.006,29.836-17.716,22.85-13.758,42.371-25.512,59.987-32.707.205-.079.352-.161.498-.243,5.467-3.22,24.082-9.062,35.789-9.882l.785-.056Z"/>
  <path class="cls-2" d="M641.232,347.978l-.094-.299c-.103-.277-2.571-6.798-7.724-8.514-3.183-1.063-8.848-.658-10.522-.504-.472.047-.924.157-1.365.333-.098.041-10.846,4.329-17.376,6.157-2.84.795-13.833,1.622-17.89,1.553-15.234-2.235-21.583-8.165-24.999-11.355l-.473-.438c-3.88-3.598-4.661-10.673-3.967-14.322,1.185-6.242,2.555-9.911,5.839-16.787,15.36,8.446,37.787,15.04,60.284-16.003,9.684-16.639,10.321-37.815,1.535-52.774-5.079-7.545-16.679-10.633-25.32-6.741-16.601,7.444-28.182,16.254-44.771,43.255l-44.852-32.474c-6.479-5.231-13.188-5.508-17.506-.719-.319.353-.586.756-.792,1.197-1.395,2.984-1.576,7.633,1.162,11.297,1.619,2.168,28.015,30.788,49.371,41.093-9.492,18.656-11.055,38.663-4.141,53.798,6.166,13.493,18.444,22.25,35.511,25.321,9.917,1.786,18.957,2.691,26.87,2.691,17.073,0,24.564-4.119,27.092-6.001,2.417-1.157,7.944-3.927,10.293-6.125,3.097-2.903,3.633-6.768,3.696-8.099.593-3.113.397-4.651.141-5.539ZM572.246,283.397l.981-2.279c9.533-15.012,19.043-25.431,29.927-32.791,1.874-1.274,4.879-.658,6.88.609,1.871,1.187,2.839,2.858,2.588,4.471-.636,4.083-6.939,28.339-19.377,37.415l-.365.211c-2.994,1.153-3.526,1.17-4.95,1.219-.382.012-.817.028-1.354.062-4.632.313-6.256-.97-8.128-2.44l-.35-.274c-3.438-2.673-5.191-5.137-5.854-6.202Z"/>
  <g>
    <path class="cls-2" d="M2073.886,587.535c.574.425,1.222.71,1.925.85l8.511,1.704c.316.06.636.091.943.091,1.286,0,2.499-.5,3.419-1.411,8.616-8.572,13.673-13.006,25.178-12.207,2.197.158,4.236-1.235,4.922-3.308.258-.772.688-1.598,1.146-2.474l.155-.294c1.491-2.851,3.346-6.398,2.136-10.375-1.811-5.974-12.322-13.775-24.123-11.884-10.644,1.718-27.979,12.891-30.911,19.925-3.164,7.553,2.127,16.03,6.7,19.384Z"/>
    <path class="cls-2" d="M2035.2,670.664c-4.348-6.75-8.845-13.73-10.424-21.16h0c-2.525-11.817-1.825-26.619-1.148-40.937.794-16.695,1.541-32.464-2.382-44.585-.132-.42-.363-.892-.633-1.286-4.471-6.643-5.745-7.386-15.167-8.832-2.405-.349-4.679,1.113-5.367,3.391-11.566,38.266-2.531,124.342,26.358,138.451,6.656,3.201,12.58,4.658,15.267,4.658,1.427,0,2.774-.624,3.694-1.708.926-1.088,1.324-2.521,1.09-3.927-1.444-8.788-6.434-16.532-11.288-24.066Z"/>
    <path class="cls-2" d="M2149.513,628.441h0c-1.266-5.364-8.733-12.079-17.502-10.455-.492.088-.97.256-1.424.501-11.95,6.451-35.584,15.533-48.126,12.463-1.635-.393-3.387.095-4.576,1.282-.334.331-.806.637-1.301.971l-.287.195c-2.109,1.441-5.001,3.416-5.918,6.797-.987,3.64.709,6.782,1.72,8.654l.155.287c.132.24.264.456.325.645.331,1.009,1.002,1.894,1.893,2.495,6.211,4.181,12.697,6.212,19.831,6.212,11.467,0,22.588-5.44,32.399-10.242,4.746-2.322,9.229-4.515,13.679-6.18.311-.113.601-.259.914-.45,2.95-1.866,9.858-6.237,8.218-13.175Z"/>
  </g>
  <g>
    <path class="cls-2" d="M1643.008,232.691l-.026-.151c-.12-.536-1.26-5.333-4.567-8.238-3.609-3.152-10.266-3.012-11.013-2.987l-1.327.028-1.143.716c-1.031.643-10.324,6.42-18.987,11.26-1.418.734-12.981,4.794-17.827,5.366-3.422.435-15.229-.998-22.875-9.486-5.549-6.166-4.233-15.198-2.256-24.694,1.219-5.886,3.521-10.714,5.733-14.713,22.075,6.491,32.766,8.473,37.356,3.357,5.514-6.166,6.062-45.25,6.062-45.639,0-5.558-3.519-9.108-6.867-10.122-5.736-3.334-14.848-.098-17.525.983-6.044,2.436-13.488,9.088-21.369,16.131-1.934,1.729-4.933,5.323-6.907,7.044-6.428-4.099-8.063-9.663-11.936-17.481-.384-1.597-.955-3.034-1.459-4.301l-.082-.207c12.044-7.403,37.567-24.3,39.762-35.739.636-3.335-.513-5.673-1.588-7.049-8.092-10.32-30.814-11.685-44.229-5.94l-1.23.529-.779,1.081c-3.164,4.355-6.023,8.713-8.786,12.927-11.977,18.261-22.318,34.03-49.711,37.207l-1.799.208-1.222,1.336c-5.227,5.719-1.62,13.329-.255,16.208,2.326,4.9,7.538,6.826,10.963,8.09l3.401,1.329,34.424-18.776c5.03,13.024,11.991,22.141,21.22,27.795-6.021,14.783-19.778,58.304,16.547,78.308,1.055.431,10.594,4.241,20.851,5.095.926.076,1.91.114,2.933.114,11.323,0,26.801-4.443,32.285-6.93,4.875-2.203,18.785-9.265,21.369-11.449,3.302-2.801,3.211-8.227,2.862-11.21ZM1586.545,160.41l.23-.261c3.311-4.515,8.301-6.763,10.913-7.11.017.24.01.484.022.725.047-.008.098-.028.145-.034.546,7.577-1.56,15.754-2.981,21.28-.188.725-.361,1.411-.521,2.053l-.806,2.134s-4.544-1.223-8.913-2.447-10.048-4.413-10.048-4.413l11.959-11.928ZM1535.447,128.934s8.67-16.102,11.973-22.501c4.037-7.821,19.611-3.303,17.547,1.032-2.064,4.335-11.767,9.083-11.767,9.083l-17.753,12.386Z"/>
    <path class="cls-1" d="M1593.547,179.197l.806-2.134c.159-.642.333-1.328.521-2.053,1.422-5.526,3.527-13.703,2.981-21.28-.047.006-.097.026-.145.034-.012-.241-.005-.485-.022-.725-2.613.347-7.603,2.594-10.913,7.11l-.23.261-11.959,11.928s5.68,3.189,10.048,4.413,8.913,2.447,8.913,2.447Z"/>
  </g>
</svg>